<svg xmlns="http://www.w3.org/2000/svg" xmlns:xlink="http://www.w3.org/1999/xlink" width="500" zoomAndPan="magnify" viewBox="0 0 375 374.999991" height="500" preserveAspectRatio="xMidYMid meet" version="1.0"><defs><g/></defs><g fill="#8e85e6" fill-opacity="1"><g transform="translate(76.626277, 147.623597)"><g><path d="M 94.09375 -65.953125 C 94.09375 -63.703125 93.988281 -60.5 93.78125 -56.34375 C 93.582031 -52.195312 93.195312 -47.632812 92.625 -42.65625 C 92.0625 -37.6875 91.269531 -32.613281 90.25 -27.4375 C 89.226562 -22.269531 87.894531 -17.582031 86.25 -13.375 C 84.613281 -9.175781 82.613281 -5.71875 80.25 -3 C 77.894531 -0.28125 75.078125 1.078125 71.796875 1.078125 C 68.722656 1.078125 65.90625 0.179688 63.34375 -1.609375 C 60.78125 -3.410156 58.472656 -5.613281 56.421875 -8.21875 C 54.367188 -10.832031 52.570312 -13.625 51.03125 -16.59375 C 49.5 -19.570312 48.222656 -22.289062 47.203125 -24.75 C 45.046875 -29.976562 42.890625 -35.128906 40.734375 -40.203125 C 38.585938 -45.273438 36.539062 -50.425781 34.59375 -55.65625 L 34.59375 -51.359375 C 34.59375 -46.941406 34.566406 -42.554688 34.515625 -38.203125 C 34.460938 -33.847656 34.128906 -29.519531 33.515625 -25.21875 C 33.304688 -23.46875 33.070312 -21.441406 32.8125 -19.140625 C 32.5625 -16.835938 32.179688 -14.554688 31.671875 -12.296875 C 31.160156 -10.046875 30.414062 -7.945312 29.4375 -6 C 28.46875 -4.050781 27.160156 -2.613281 25.515625 -1.6875 C 24.597656 -1.175781 23.753906 -0.867188 22.984375 -0.765625 C 22.210938 -0.660156 21.367188 -0.507812 20.453125 -0.3125 L 19.984375 -0.3125 C 17.628906 -0.3125 15.628906 -1.101562 13.984375 -2.6875 C 12.347656 -4.28125 10.96875 -6.332031 9.84375 -8.84375 C 8.71875 -11.351562 7.820312 -14.171875 7.15625 -17.296875 C 6.488281 -20.421875 5.972656 -23.492188 5.609375 -26.515625 C 5.253906 -29.546875 5.023438 -32.34375 4.921875 -34.90625 C 4.816406 -37.46875 4.765625 -39.515625 4.765625 -41.046875 C 4.765625 -43.410156 4.863281 -46.867188 5.0625 -51.421875 C 5.269531 -55.984375 5.707031 -61.03125 6.375 -66.5625 C 7.039062 -72.101562 7.910156 -77.796875 8.984375 -83.640625 C 10.066406 -89.484375 11.476562 -94.785156 13.21875 -99.546875 C 14.96875 -104.316406 17.070312 -108.210938 19.53125 -111.234375 C 21.988281 -114.253906 24.859375 -115.765625 28.140625 -115.765625 C 31.316406 -115.765625 34.160156 -114.535156 36.671875 -112.078125 C 39.179688 -109.617188 41.410156 -106.695312 43.359375 -103.3125 C 45.304688 -99.9375 46.945312 -96.398438 48.28125 -92.703125 C 49.613281 -89.015625 50.738281 -85.941406 51.65625 -83.484375 C 53.394531 -78.671875 55.082031 -73.878906 56.71875 -69.109375 C 58.363281 -64.335938 59.957031 -59.492188 61.5 -54.578125 C 61.601562 -54.367188 61.804688 -53.800781 62.109375 -52.875 C 62.421875 -51.957031 62.78125 -50.9375 63.1875 -49.8125 C 63.601562 -48.582031 64.117188 -47.195312 64.734375 -45.65625 C 64.734375 -46.988281 64.707031 -47.9375 64.65625 -48.5 C 64.601562 -49.070312 64.578125 -49.585938 64.578125 -50.046875 C 64.578125 -50.503906 64.578125 -51.09375 64.578125 -51.8125 C 64.578125 -52.53125 64.578125 -53.660156 64.578125 -55.203125 C 64.472656 -58.578125 64.394531 -61.957031 64.34375 -65.34375 C 64.289062 -68.726562 64.265625 -72.0625 64.265625 -75.34375 C 64.265625 -76.769531 64.289062 -78.765625 64.34375 -81.328125 C 64.394531 -83.890625 64.546875 -86.628906 64.796875 -89.546875 C 65.054688 -92.472656 65.441406 -95.421875 65.953125 -98.390625 C 66.460938 -101.367188 67.203125 -104.0625 68.171875 -106.46875 C 69.148438 -108.875 70.382812 -110.847656 71.875 -112.390625 C 73.363281 -113.929688 75.179688 -114.703125 77.328125 -114.703125 C 79.890625 -114.703125 82.09375 -113.726562 83.9375 -111.78125 C 85.789062 -109.832031 87.332031 -107.34375 88.5625 -104.3125 C 89.789062 -101.289062 90.765625 -97.910156 91.484375 -94.171875 C 92.203125 -90.429688 92.765625 -86.765625 93.171875 -83.171875 C 93.578125 -79.585938 93.832031 -76.257812 93.9375 -73.1875 C 94.039062 -70.113281 94.09375 -67.703125 94.09375 -65.953125 Z M 94.09375 -65.953125 "/></g></g><g transform="translate(176.258654, 147.623597)"><g><path d="M 67.34375 -111 C 67.34375 -107.101562 66.007812 -103.566406 63.34375 -100.390625 C 60.675781 -97.210938 57.421875 -94.367188 53.578125 -91.859375 C 49.734375 -89.347656 45.707031 -87.171875 41.5 -85.328125 C 37.300781 -83.484375 33.664062 -81.945312 30.59375 -80.71875 C 30.59375 -78.5625 30.539062 -76.351562 30.4375 -74.09375 C 30.332031 -71.84375 30.179688 -69.59375 29.984375 -67.34375 C 33.265625 -68.976562 36.953125 -70.515625 41.046875 -71.953125 C 45.148438 -73.390625 49.046875 -74.109375 52.734375 -74.109375 C 55.703125 -74.109375 58.132812 -73.492188 60.03125 -72.265625 C 61.925781 -71.035156 62.875 -68.878906 62.875 -65.796875 C 62.875 -62.421875 61.671875 -59.398438 59.265625 -56.734375 C 56.859375 -54.066406 53.960938 -51.707031 50.578125 -49.65625 C 47.203125 -47.601562 43.664062 -45.859375 39.96875 -44.421875 C 36.28125 -42.992188 33.15625 -41.867188 30.59375 -41.046875 C 30.59375 -37.671875 30.539062 -34.316406 30.4375 -30.984375 C 30.332031 -27.648438 30.179688 -24.34375 29.984375 -21.0625 C 29.878906 -19.425781 29.695312 -17.375 29.4375 -14.90625 C 29.1875 -12.445312 28.675781 -10.066406 27.90625 -7.765625 C 27.132812 -5.460938 26.03125 -3.460938 24.59375 -1.765625 C 23.164062 -0.078125 21.320312 0.765625 19.0625 0.765625 C 16.914062 0.765625 15.070312 -0.28125 13.53125 -2.375 C 11.988281 -4.476562 10.679688 -7.171875 9.609375 -10.453125 C 8.535156 -13.734375 7.664062 -17.394531 7 -21.4375 C 6.332031 -25.488281 5.816406 -29.460938 5.453125 -33.359375 C 5.097656 -37.253906 4.894531 -40.84375 4.84375 -44.125 C 4.789062 -47.40625 4.765625 -49.914062 4.765625 -51.65625 C 4.765625 -52.988281 4.789062 -54.960938 4.84375 -57.578125 C 4.894531 -60.191406 4.945312 -63.085938 5 -66.265625 C 5.050781 -69.441406 5.148438 -72.769531 5.296875 -76.25 C 5.453125 -79.738281 5.632812 -83.046875 5.84375 -86.171875 C 6.050781 -89.296875 6.332031 -92.0625 6.6875 -94.46875 C 7.039062 -96.882812 7.476562 -98.65625 8 -99.78125 C 9.125 -102.039062 11.8125 -104.269531 16.0625 -106.46875 C 20.320312 -108.675781 25.0625 -110.625 30.28125 -112.3125 C 35.507812 -114 40.609375 -115.378906 45.578125 -116.453125 C 50.554688 -117.535156 54.378906 -118.078125 57.046875 -118.078125 C 58.273438 -118.078125 59.476562 -118 60.65625 -117.84375 C 61.832031 -117.6875 62.929688 -117.351562 63.953125 -116.84375 C 64.984375 -116.332031 65.804688 -115.613281 66.421875 -114.6875 C 67.035156 -113.769531 67.34375 -112.539062 67.34375 -111 Z M 67.34375 -111 "/></g></g><g transform="translate(239.758918, 147.623597)"><g><path d="M 71.1875 -105.015625 C 71.1875 -102.453125 70.1875 -100.117188 68.1875 -98.015625 C 66.1875 -95.910156 63.773438 -94.0625 60.953125 -92.46875 C 58.140625 -90.882812 55.242188 -89.578125 52.265625 -88.546875 C 49.296875 -87.523438 46.835938 -86.8125 44.890625 -86.40625 C 44.078125 -78.507812 43.4375 -70.640625 42.96875 -62.796875 C 42.507812 -54.960938 42.28125 -47.097656 42.28125 -39.203125 C 42.28125 -35.003906 42.378906 -30.851562 42.578125 -26.75 C 42.785156 -22.65625 42.890625 -18.554688 42.890625 -14.453125 C 42.890625 -12.609375 42.707031 -10.582031 42.34375 -8.375 C 41.988281 -6.175781 41.375 -4.101562 40.5 -2.15625 C 39.632812 -0.207031 38.429688 1.429688 36.890625 2.765625 C 35.359375 4.097656 33.460938 4.765625 31.203125 4.765625 C 28.546875 4.765625 26.421875 4.019531 24.828125 2.53125 C 23.242188 1.050781 22.015625 -0.765625 21.140625 -2.921875 C 20.265625 -5.078125 19.671875 -7.359375 19.359375 -9.765625 C 19.054688 -12.171875 18.90625 -14.347656 18.90625 -16.296875 C 18.707031 -22.441406 18.554688 -28.613281 18.453125 -34.8125 C 18.347656 -41.019531 18.296875 -47.25 18.296875 -53.5 C 18.296875 -58.726562 18.320312 -63.851562 18.375 -68.875 C 18.425781 -73.894531 18.453125 -79.019531 18.453125 -84.25 C 17.015625 -84.050781 15.550781 -83.898438 14.0625 -83.796875 C 12.582031 -83.691406 11.070312 -83.640625 9.53125 -83.640625 C 8.300781 -83.640625 6.6875 -83.765625 4.6875 -84.015625 C 2.6875 -84.273438 0.765625 -84.738281 -1.078125 -85.40625 C -2.921875 -86.070312 -4.507812 -86.992188 -5.84375 -88.171875 C -7.175781 -89.347656 -7.84375 -90.859375 -7.84375 -92.703125 C -7.84375 -95.785156 -6.632812 -98.476562 -4.21875 -100.78125 C -1.8125 -103.082031 1.257812 -105.078125 5 -106.765625 C 8.738281 -108.460938 12.890625 -109.898438 17.453125 -111.078125 C 22.015625 -112.253906 26.523438 -113.175781 30.984375 -113.84375 C 35.441406 -114.507812 39.539062 -114.992188 43.28125 -115.296875 C 47.019531 -115.609375 49.914062 -115.765625 51.96875 -115.765625 C 53.914062 -115.765625 55.988281 -115.6875 58.1875 -115.53125 C 60.394531 -115.382812 62.472656 -114.953125 64.421875 -114.234375 C 66.367188 -113.515625 67.984375 -112.4375 69.265625 -111 C 70.546875 -109.570312 71.1875 -107.578125 71.1875 -105.015625 Z M 71.1875 -105.015625 "/></g></g></g><g fill="#8e85e6" fill-opacity="1"><g transform="translate(1.676489, 302.734853)"><g><path d="M 70.875 -101.171875 C 70.875 -93.679688 70.59375 -86.242188 70.03125 -78.859375 C 69.46875 -71.484375 69.1875 -64.054688 69.1875 -56.578125 C 69.1875 -50.535156 69.363281 -44.539062 69.71875 -38.59375 C 70.082031 -32.644531 70.265625 -26.648438 70.265625 -20.609375 C 70.265625 -18.960938 70.210938 -16.984375 70.109375 -14.671875 C 70.003906 -12.367188 69.671875 -10.140625 69.109375 -7.984375 C 68.546875 -5.835938 67.625 -3.992188 66.34375 -2.453125 C 65.0625 -0.921875 63.242188 -0.15625 60.890625 -0.15625 C 57.804688 -0.15625 55.265625 -1.304688 53.265625 -3.609375 C 51.273438 -5.921875 50.019531 -8.507812 49.5 -11.375 C 47.550781 -7.6875 44.734375 -4.5625 41.046875 -2 C 37.359375 0.5625 33.363281 1.84375 29.0625 1.84375 C 24.445312 1.84375 20.472656 0.253906 17.140625 -2.921875 C 13.804688 -6.097656 11.035156 -9.941406 8.828125 -14.453125 C 6.628906 -18.960938 4.992188 -23.675781 3.921875 -28.59375 C 2.847656 -33.519531 2.3125 -37.773438 2.3125 -41.359375 C 2.3125 -43.921875 2.460938 -46.84375 2.765625 -50.125 C 3.078125 -53.40625 3.613281 -56.734375 4.375 -60.109375 C 5.144531 -63.492188 6.144531 -66.800781 7.375 -70.03125 C 8.601562 -73.257812 10.164062 -76.15625 12.0625 -78.71875 C 13.957031 -81.28125 16.210938 -83.328125 18.828125 -84.859375 C 21.441406 -86.398438 24.441406 -87.171875 27.828125 -87.171875 C 31.515625 -87.171875 35.050781 -86.09375 38.4375 -83.9375 C 41.820312 -81.789062 44.382812 -79.128906 46.125 -75.953125 L 47.515625 -100.390625 C 47.609375 -102.335938 47.757812 -104.617188 47.96875 -107.234375 C 48.175781 -109.847656 48.613281 -112.332031 49.28125 -114.6875 C 49.945312 -117.050781 50.992188 -119.050781 52.421875 -120.6875 C 53.859375 -122.332031 55.960938 -123.15625 58.734375 -123.15625 C 61.703125 -123.15625 64.003906 -122.4375 65.640625 -121 C 67.285156 -119.5625 68.492188 -117.738281 69.265625 -115.53125 C 70.035156 -113.332031 70.492188 -110.953125 70.640625 -108.390625 C 70.796875 -105.828125 70.875 -103.421875 70.875 -101.171875 Z M 45.8125 -32.90625 C 45.8125 -35.257812 45.757812 -37.5625 45.65625 -39.8125 C 45.5625 -42.070312 45.5625 -44.378906 45.65625 -46.734375 C 45.039062 -48.066406 44.320312 -49.523438 43.5 -51.109375 C 42.6875 -52.703125 41.691406 -54.191406 40.515625 -55.578125 C 39.335938 -56.960938 38.03125 -58.113281 36.59375 -59.03125 C 35.15625 -59.957031 33.617188 -60.421875 31.984375 -60.421875 C 30.140625 -60.421875 28.648438 -59.859375 27.515625 -58.734375 C 26.390625 -57.609375 25.570312 -56.25 25.0625 -54.65625 C 24.550781 -53.070312 24.21875 -51.351562 24.0625 -49.5 C 23.90625 -47.65625 23.828125 -46.066406 23.828125 -44.734375 C 23.828125 -43.503906 23.929688 -41.6875 24.140625 -39.28125 C 24.347656 -36.875 24.734375 -34.441406 25.296875 -31.984375 C 25.859375 -29.523438 26.648438 -27.367188 27.671875 -25.515625 C 28.703125 -23.671875 30.085938 -22.75 31.828125 -22.75 C 33.160156 -22.75 34.492188 -23.03125 35.828125 -23.59375 C 37.160156 -24.164062 38.414062 -24.882812 39.59375 -25.75 C 40.769531 -26.625 41.894531 -27.597656 42.96875 -28.671875 C 44.050781 -29.742188 45 -30.742188 45.8125 -31.671875 Z M 45.8125 -32.90625 "/></g></g><g transform="translate(78.092061, 302.734853)"><g><path d="M 69.03125 -27.359375 C 69.03125 -23.878906 67.925781 -20.472656 65.71875 -17.140625 C 63.519531 -13.804688 60.753906 -10.832031 57.421875 -8.21875 C 54.085938 -5.613281 50.523438 -3.515625 46.734375 -1.921875 C 42.941406 -0.328125 39.457031 0.46875 36.28125 0.46875 C 30.851562 0.46875 26.007812 -0.890625 21.75 -3.609375 C 17.5 -6.328125 13.9375 -9.785156 11.0625 -13.984375 C 8.195312 -18.191406 6.019531 -22.832031 4.53125 -27.90625 C 3.050781 -32.976562 2.3125 -37.921875 2.3125 -42.734375 C 2.3125 -47.859375 3.023438 -53.34375 4.453125 -59.1875 C 5.890625 -65.03125 8.066406 -70.410156 10.984375 -75.328125 C 13.910156 -80.253906 17.601562 -84.359375 22.0625 -87.640625 C 26.519531 -90.921875 31.820312 -92.5625 37.96875 -92.5625 C 41.457031 -92.5625 44.789062 -91.96875 47.96875 -90.78125 C 51.144531 -89.601562 53.910156 -87.9375 56.265625 -85.78125 C 58.628906 -83.632812 60.523438 -81.070312 61.953125 -78.09375 C 63.390625 -75.125 64.109375 -71.796875 64.109375 -68.109375 C 64.109375 -63.296875 63.082031 -58.785156 61.03125 -54.578125 C 58.988281 -50.378906 56.273438 -46.738281 52.890625 -43.65625 C 49.503906 -40.582031 45.609375 -38.097656 41.203125 -36.203125 C 36.796875 -34.304688 32.285156 -33.257812 27.671875 -33.0625 C 28.085938 -30.082031 29.289062 -27.925781 31.28125 -26.59375 C 33.28125 -25.257812 35.664062 -24.59375 38.4375 -24.59375 C 40.488281 -24.59375 42.488281 -25.101562 44.4375 -26.125 C 46.382812 -27.15625 48.28125 -28.3125 50.125 -29.59375 C 51.96875 -30.875 53.785156 -32.023438 55.578125 -33.046875 C 57.367188 -34.078125 59.1875 -34.59375 61.03125 -34.59375 C 63.082031 -34.59375 64.925781 -33.925781 66.5625 -32.59375 C 68.207031 -31.257812 69.03125 -29.515625 69.03125 -27.359375 Z M 44.125 -65.03125 C 44.125 -66.363281 43.765625 -67.75 43.046875 -69.1875 C 42.328125 -70.625 41.203125 -71.34375 39.671875 -71.34375 C 37.410156 -71.34375 35.507812 -70.75 33.96875 -69.5625 C 32.4375 -68.382812 31.15625 -66.898438 30.125 -65.109375 C 29.101562 -63.316406 28.3125 -61.394531 27.75 -59.34375 C 27.1875 -57.289062 26.851562 -55.394531 26.75 -53.65625 C 28.1875 -53.96875 29.90625 -54.378906 31.90625 -54.890625 C 33.90625 -55.398438 35.800781 -56.085938 37.59375 -56.953125 C 39.382812 -57.828125 40.921875 -58.929688 42.203125 -60.265625 C 43.484375 -61.597656 44.125 -63.1875 44.125 -65.03125 Z M 44.125 -65.03125 "/></g></g><g transform="translate(148.664995, 302.734853)"><g><path d="M 74.265625 -52.421875 C 74.265625 -47.203125 74.1875 -41.976562 74.03125 -36.75 C 73.875 -31.519531 73.59375 -26.289062 73.1875 -21.0625 C 72.875 -16.550781 72.460938 -11.734375 71.953125 -6.609375 C 71.441406 -1.484375 70.617188 3.613281 69.484375 8.6875 C 68.359375 13.757812 66.875 18.625 65.03125 23.28125 C 63.1875 27.945312 60.753906 32.070312 57.734375 35.65625 C 54.710938 39.25 51.046875 42.125 46.734375 44.28125 C 42.429688 46.4375 37.304688 47.515625 31.359375 47.515625 C 28.597656 47.515625 25.5 47.078125 22.0625 46.203125 C 18.625 45.328125 15.394531 44.066406 12.375 42.421875 C 9.351562 40.785156 6.789062 38.765625 4.6875 36.359375 C 2.582031 33.953125 1.53125 31.160156 1.53125 27.984375 C 1.53125 25.628906 2.375 23.453125 4.0625 21.453125 C 5.757812 19.453125 7.941406 18.453125 10.609375 18.453125 C 12.242188 18.453125 13.804688 18.734375 15.296875 19.296875 C 16.785156 19.859375 18.269531 20.5 19.75 21.21875 C 21.238281 21.9375 22.675781 22.578125 24.0625 23.140625 C 25.445312 23.703125 26.859375 23.984375 28.296875 23.984375 C 32.085938 23.984375 35.265625 23.035156 37.828125 21.140625 C 40.390625 19.242188 42.4375 16.832031 43.96875 13.90625 C 45.507812 10.988281 46.660156 7.8125 47.421875 4.375 C 48.191406 0.945312 48.734375 -2.300781 49.046875 -5.375 C 46.992188 -3.019531 44.609375 -1.40625 41.890625 -0.53125 C 39.179688 0.332031 36.335938 0.765625 33.359375 0.765625 C 27.929688 0.765625 23.320312 -0.179688 19.53125 -2.078125 C 15.738281 -3.972656 12.660156 -6.582031 10.296875 -9.90625 C 7.941406 -13.238281 6.195312 -17.109375 5.0625 -21.515625 C 3.9375 -25.929688 3.375 -30.703125 3.375 -35.828125 C 3.375 -39.003906 3.707031 -42.585938 4.375 -46.578125 C 5.039062 -50.578125 6.039062 -54.625 7.375 -58.71875 C 8.707031 -62.820312 10.375 -66.820312 12.375 -70.71875 C 14.375 -74.613281 16.707031 -78.046875 19.375 -81.015625 C 22.039062 -83.992188 25.035156 -86.40625 28.359375 -88.25 C 31.691406 -90.09375 35.359375 -91.015625 39.359375 -91.015625 C 43.253906 -91.015625 46.710938 -89.882812 49.734375 -87.625 C 52.753906 -85.375 54.523438 -82.203125 55.046875 -78.109375 C 56.171875 -80.253906 57.65625 -82.378906 59.5 -84.484375 C 61.34375 -86.585938 63.597656 -87.640625 66.265625 -87.640625 C 67.703125 -87.640625 68.90625 -86.921875 69.875 -85.484375 C 70.851562 -84.046875 71.625 -82.171875 72.1875 -79.859375 C 72.75 -77.554688 73.179688 -75.046875 73.484375 -72.328125 C 73.796875 -69.617188 74.003906 -66.957031 74.109375 -64.34375 C 74.210938 -61.726562 74.265625 -59.34375 74.265625 -57.1875 C 74.265625 -55.039062 74.265625 -53.453125 74.265625 -52.421875 Z M 50.890625 -42.4375 C 50.890625 -43.96875 50.65625 -45.960938 50.1875 -48.421875 C 49.726562 -50.890625 49.0625 -53.25 48.1875 -55.5 C 47.320312 -57.757812 46.222656 -59.707031 44.890625 -61.34375 C 43.554688 -62.988281 41.96875 -63.8125 40.125 -63.8125 C 37.769531 -63.8125 35.691406 -62.988281 33.890625 -61.34375 C 32.097656 -59.707031 30.585938 -57.734375 29.359375 -55.421875 C 28.128906 -53.117188 27.179688 -50.660156 26.515625 -48.046875 C 25.847656 -45.429688 25.515625 -43.203125 25.515625 -41.359375 C 25.515625 -40.023438 25.617188 -38.226562 25.828125 -35.96875 C 26.035156 -33.71875 26.472656 -31.515625 27.140625 -29.359375 C 27.804688 -27.210938 28.703125 -25.367188 29.828125 -23.828125 C 30.953125 -22.296875 32.4375 -21.53125 34.28125 -21.53125 C 37.050781 -21.53125 39.460938 -22.191406 41.515625 -23.515625 C 43.566406 -24.847656 45.28125 -26.539062 46.65625 -28.59375 C 48.039062 -30.644531 49.09375 -32.898438 49.8125 -35.359375 C 50.53125 -37.816406 50.890625 -40.175781 50.890625 -42.4375 Z M 50.890625 -42.4375 "/></g></g><g transform="translate(229.231917, 302.734853)"><g><path d="M 69.03125 -27.359375 C 69.03125 -23.878906 67.925781 -20.472656 65.71875 -17.140625 C 63.519531 -13.804688 60.753906 -10.832031 57.421875 -8.21875 C 54.085938 -5.613281 50.523438 -3.515625 46.734375 -1.921875 C 42.941406 -0.328125 39.457031 0.46875 36.28125 0.46875 C 30.851562 0.46875 26.007812 -0.890625 21.75 -3.609375 C 17.5 -6.328125 13.9375 -9.785156 11.0625 -13.984375 C 8.195312 -18.191406 6.019531 -22.832031 4.53125 -27.90625 C 3.050781 -32.976562 2.3125 -37.921875 2.3125 -42.734375 C 2.3125 -47.859375 3.023438 -53.34375 4.453125 -59.1875 C 5.890625 -65.03125 8.066406 -70.410156 10.984375 -75.328125 C 13.910156 -80.253906 17.601562 -84.359375 22.0625 -87.640625 C 26.519531 -90.921875 31.820312 -92.5625 37.96875 -92.5625 C 41.457031 -92.5625 44.789062 -91.96875 47.96875 -90.78125 C 51.144531 -89.601562 53.910156 -87.9375 56.265625 -85.78125 C 58.628906 -83.632812 60.523438 -81.070312 61.953125 -78.09375 C 63.390625 -75.125 64.109375 -71.796875 64.109375 -68.109375 C 64.109375 -63.296875 63.082031 -58.785156 61.03125 -54.578125 C 58.988281 -50.378906 56.273438 -46.738281 52.890625 -43.65625 C 49.503906 -40.582031 45.609375 -38.097656 41.203125 -36.203125 C 36.796875 -34.304688 32.285156 -33.257812 27.671875 -33.0625 C 28.085938 -30.082031 29.289062 -27.925781 31.28125 -26.59375 C 33.28125 -25.257812 35.664062 -24.59375 38.4375 -24.59375 C 40.488281 -24.59375 42.488281 -25.101562 44.4375 -26.125 C 46.382812 -27.15625 48.28125 -28.3125 50.125 -29.59375 C 51.96875 -30.875 53.785156 -32.023438 55.578125 -33.046875 C 57.367188 -34.078125 59.1875 -34.59375 61.03125 -34.59375 C 63.082031 -34.59375 64.925781 -33.925781 66.5625 -32.59375 C 68.207031 -31.257812 69.03125 -29.515625 69.03125 -27.359375 Z M 44.125 -65.03125 C 44.125 -66.363281 43.765625 -67.75 43.046875 -69.1875 C 42.328125 -70.625 41.203125 -71.34375 39.671875 -71.34375 C 37.410156 -71.34375 35.507812 -70.75 33.96875 -69.5625 C 32.4375 -68.382812 31.15625 -66.898438 30.125 -65.109375 C 29.101562 -63.316406 28.3125 -61.394531 27.75 -59.34375 C 27.1875 -57.289062 26.851562 -55.394531 26.75 -53.65625 C 28.1875 -53.96875 29.90625 -54.378906 31.90625 -54.890625 C 33.90625 -55.398438 35.800781 -56.085938 37.59375 -56.953125 C 39.382812 -57.828125 40.921875 -58.929688 42.203125 -60.265625 C 43.484375 -61.597656 44.125 -63.1875 44.125 -65.03125 Z M 44.125 -65.03125 "/></g></g><g transform="translate(299.804851, 302.734853)"><g><path d="M 48.28125 4.3125 C 46.53125 4.3125 45.144531 3.515625 44.125 1.921875 C 43.101562 0.328125 42.332031 -1.488281 41.8125 -3.53125 C 41.300781 -5.582031 40.96875 -7.660156 40.8125 -9.765625 C 40.664062 -11.867188 40.59375 -13.484375 40.59375 -14.609375 C 40.59375 -17.679688 40.769531 -20.753906 41.125 -23.828125 C 41.488281 -26.898438 41.898438 -29.972656 42.359375 -33.046875 C 42.816406 -36.128906 43.222656 -39.207031 43.578125 -42.28125 C 43.941406 -45.351562 44.125 -48.425781 44.125 -51.5 C 44.125 -52.726562 44.070312 -54.0625 43.96875 -55.5 C 43.863281 -56.9375 43.628906 -58.296875 43.265625 -59.578125 C 42.910156 -60.859375 42.320312 -61.90625 41.5 -62.71875 C 40.6875 -63.539062 39.613281 -63.953125 38.28125 -63.953125 C 37.363281 -63.953125 36.335938 -63.207031 35.203125 -61.71875 C 34.078125 -60.238281 33.023438 -58.550781 32.046875 -56.65625 C 31.078125 -54.757812 30.257812 -52.863281 29.59375 -50.96875 C 28.925781 -49.070312 28.59375 -47.660156 28.59375 -46.734375 C 28.59375 -44.484375 28.617188 -42.203125 28.671875 -39.890625 C 28.722656 -37.585938 28.75 -35.257812 28.75 -32.90625 L 28.75 -23.984375 C 28.644531 -22.140625 28.488281 -20.242188 28.28125 -18.296875 C 28.082031 -16.347656 27.773438 -14.453125 27.359375 -12.609375 C 27.054688 -10.765625 26.597656 -8.992188 25.984375 -7.296875 C 25.367188 -5.609375 24.570312 -4.125 23.59375 -2.84375 C 22.625 -1.5625 21.472656 -0.515625 20.140625 0.296875 C 18.804688 1.117188 17.21875 1.53125 15.375 1.53125 C 13.320312 1.53125 11.628906 0.867188 10.296875 -0.453125 C 8.960938 -1.785156 7.882812 -3.503906 7.0625 -5.609375 C 6.25 -7.710938 5.660156 -10.070312 5.296875 -12.6875 C 4.941406 -15.300781 4.6875 -17.863281 4.53125 -20.375 C 4.382812 -22.882812 4.332031 -25.1875 4.375 -27.28125 C 4.425781 -29.382812 4.453125 -31.050781 4.453125 -32.28125 L 4.453125 -39.515625 C 4.453125 -43.410156 4.375 -47.253906 4.21875 -51.046875 C 4.070312 -54.835938 4 -58.628906 4 -62.421875 C 4 -64.472656 4.023438 -67.085938 4.078125 -70.265625 C 4.128906 -73.441406 4.507812 -76.539062 5.21875 -79.5625 C 5.9375 -82.582031 7.113281 -85.171875 8.75 -87.328125 C 10.394531 -89.484375 12.804688 -90.5625 15.984375 -90.5625 C 17.421875 -90.5625 18.703125 -90.097656 19.828125 -89.171875 C 20.960938 -88.253906 21.960938 -87.128906 22.828125 -85.796875 C 23.703125 -84.460938 24.421875 -83.023438 24.984375 -81.484375 C 25.546875 -79.953125 25.984375 -78.617188 26.296875 -77.484375 C 27.316406 -78.921875 28.519531 -80.304688 29.90625 -81.640625 C 31.289062 -82.972656 32.851562 -84.148438 34.59375 -85.171875 C 36.332031 -86.203125 38.28125 -87.023438 40.4375 -87.640625 C 42.59375 -88.253906 45.050781 -88.5625 47.8125 -88.5625 C 53.039062 -88.5625 57.113281 -87.304688 60.03125 -84.796875 C 62.957031 -82.285156 65.113281 -79.15625 66.5 -75.40625 C 67.882812 -71.664062 68.726562 -67.644531 69.03125 -63.34375 C 69.34375 -59.039062 69.5 -55.144531 69.5 -51.65625 C 69.5 -49.914062 69.34375 -47.328125 69.03125 -43.890625 C 68.726562 -40.460938 68.242188 -36.671875 67.578125 -32.515625 C 66.910156 -28.367188 66.007812 -24.113281 64.875 -19.75 C 63.75 -15.394531 62.414062 -11.421875 60.875 -7.828125 C 59.34375 -4.242188 57.523438 -1.328125 55.421875 0.921875 C 53.328125 3.179688 50.945312 4.3125 48.28125 4.3125 Z M 48.28125 4.3125 "/></g></g></g></svg>