<svg xmlns="http://www.w3.org/2000/svg" xmlns:xlink="http://www.w3.org/1999/xlink" width="400" zoomAndPan="magnify" viewBox="0 0 300 299.999988" height="400" preserveAspectRatio="xMidYMid meet" version="1.0"><defs><g/><clipPath id="bf285787f0"><path d="M 150 0 C 67.15625 0 0 67.15625 0 150 C 0 232.84375 67.15625 300 150 300 C 232.84375 300 300 232.84375 300 150 C 300 67.15625 232.84375 0 150 0 Z M 150 0 " clip-rule="nonzero"/></clipPath></defs><g clip-path="url(#bf285787f0)"><rect x="-30" width="360" fill="#8e85e6" y="-29.999999" height="359.999986" fill-opacity="1"/></g><g fill="#ffffff" fill-opacity="1"><g transform="translate(87.757555, 130.845648)"><g><path d="M 52.828125 -37.03125 C 52.828125 -35.757812 52.769531 -33.957031 52.65625 -31.625 C 52.539062 -29.300781 52.320312 -26.742188 52 -23.953125 C 51.6875 -21.160156 51.242188 -18.3125 50.671875 -15.40625 C 50.097656 -12.5 49.347656 -9.863281 48.421875 -7.5 C 47.503906 -5.144531 46.382812 -3.203125 45.0625 -1.671875 C 43.738281 -0.148438 42.15625 0.609375 40.3125 0.609375 C 38.582031 0.609375 37 0.101562 35.5625 -0.90625 C 34.125 -1.914062 32.828125 -3.148438 31.671875 -4.609375 C 30.523438 -6.078125 29.519531 -7.644531 28.65625 -9.3125 C 27.789062 -10.988281 27.070312 -12.515625 26.5 -13.890625 C 25.289062 -16.828125 24.082031 -19.71875 22.875 -22.5625 C 21.664062 -25.414062 20.515625 -28.3125 19.421875 -31.25 L 19.421875 -28.828125 C 19.421875 -26.359375 19.40625 -23.898438 19.375 -21.453125 C 19.34375 -19.003906 19.15625 -16.570312 18.8125 -14.15625 C 18.695312 -13.175781 18.566406 -12.035156 18.421875 -10.734375 C 18.285156 -9.441406 18.070312 -8.160156 17.78125 -6.890625 C 17.488281 -5.628906 17.066406 -4.453125 16.515625 -3.359375 C 15.972656 -2.265625 15.242188 -1.460938 14.328125 -0.953125 C 13.804688 -0.660156 13.328125 -0.484375 12.890625 -0.421875 C 12.460938 -0.367188 11.992188 -0.285156 11.484375 -0.171875 L 11.21875 -0.171875 C 9.894531 -0.171875 8.769531 -0.613281 7.84375 -1.5 C 6.925781 -2.394531 6.148438 -3.546875 5.515625 -4.953125 C 4.890625 -6.367188 4.390625 -7.953125 4.015625 -9.703125 C 3.640625 -11.460938 3.347656 -13.191406 3.140625 -14.890625 C 2.941406 -16.585938 2.8125 -18.15625 2.75 -19.59375 C 2.695312 -21.03125 2.671875 -22.179688 2.671875 -23.046875 C 2.671875 -24.367188 2.726562 -26.3125 2.84375 -28.875 C 2.957031 -31.4375 3.203125 -34.269531 3.578125 -37.375 C 3.953125 -40.476562 4.441406 -43.671875 5.046875 -46.953125 C 5.648438 -50.234375 6.441406 -53.210938 7.421875 -55.890625 C 8.398438 -58.566406 9.578125 -60.753906 10.953125 -62.453125 C 12.335938 -64.148438 13.953125 -65 15.796875 -65 C 17.578125 -65 19.171875 -64.304688 20.578125 -62.921875 C 21.992188 -61.546875 23.25 -59.90625 24.34375 -58 C 25.4375 -56.101562 26.351562 -54.117188 27.09375 -52.046875 C 27.84375 -49.972656 28.476562 -48.25 29 -46.875 C 29.976562 -44.164062 30.925781 -41.472656 31.84375 -38.796875 C 32.769531 -36.117188 33.664062 -33.398438 34.53125 -30.640625 C 34.582031 -30.523438 34.691406 -30.207031 34.859375 -29.6875 C 35.035156 -29.175781 35.242188 -28.601562 35.484375 -27.96875 C 35.710938 -27.28125 36 -26.503906 36.34375 -25.640625 C 36.34375 -26.390625 36.328125 -26.921875 36.296875 -27.234375 C 36.265625 -27.546875 36.25 -27.832031 36.25 -28.09375 C 36.25 -28.351562 36.25 -28.679688 36.25 -29.078125 C 36.25 -29.484375 36.25 -30.117188 36.25 -30.984375 C 36.195312 -32.890625 36.15625 -34.789062 36.125 -36.6875 C 36.09375 -38.582031 36.078125 -40.453125 36.078125 -42.296875 C 36.078125 -43.097656 36.09375 -44.21875 36.125 -45.65625 C 36.15625 -47.101562 36.238281 -48.644531 36.375 -50.28125 C 36.519531 -51.914062 36.738281 -53.566406 37.03125 -55.234375 C 37.320312 -56.910156 37.738281 -58.421875 38.28125 -59.765625 C 38.832031 -61.117188 39.523438 -62.226562 40.359375 -63.09375 C 41.191406 -63.957031 42.210938 -64.390625 43.421875 -64.390625 C 44.859375 -64.390625 46.09375 -63.84375 47.125 -62.75 C 48.164062 -61.65625 49.03125 -60.257812 49.71875 -58.5625 C 50.40625 -56.863281 50.953125 -54.960938 51.359375 -52.859375 C 51.765625 -50.765625 52.082031 -48.707031 52.3125 -46.6875 C 52.539062 -44.675781 52.679688 -42.804688 52.734375 -41.078125 C 52.796875 -39.359375 52.828125 -38.007812 52.828125 -37.03125 Z M 52.828125 -37.03125 "/></g></g><g transform="translate(143.689317, 130.845648)"><g><path d="M 37.8125 -62.328125 C 37.8125 -60.140625 37.0625 -58.148438 35.5625 -56.359375 C 34.0625 -54.578125 32.234375 -52.976562 30.078125 -51.5625 C 27.921875 -50.15625 25.660156 -48.9375 23.296875 -47.90625 C 20.941406 -46.875 18.898438 -46.007812 17.171875 -45.3125 C 17.171875 -44.101562 17.140625 -42.863281 17.078125 -41.59375 C 17.023438 -40.332031 16.941406 -39.070312 16.828125 -37.8125 C 18.671875 -38.726562 20.742188 -39.585938 23.046875 -40.390625 C 25.347656 -41.203125 27.535156 -41.609375 29.609375 -41.609375 C 31.273438 -41.609375 32.640625 -41.257812 33.703125 -40.5625 C 34.765625 -39.875 35.296875 -38.664062 35.296875 -36.9375 C 35.296875 -35.039062 34.617188 -33.34375 33.265625 -31.84375 C 31.921875 -30.351562 30.296875 -29.03125 28.390625 -27.875 C 26.492188 -26.726562 24.507812 -25.75 22.4375 -24.9375 C 20.363281 -24.132812 18.609375 -23.503906 17.171875 -23.046875 C 17.171875 -21.148438 17.140625 -19.265625 17.078125 -17.390625 C 17.023438 -15.523438 16.941406 -13.671875 16.828125 -11.828125 C 16.773438 -10.898438 16.675781 -9.742188 16.53125 -8.359375 C 16.382812 -6.984375 16.09375 -5.648438 15.65625 -4.359375 C 15.226562 -3.066406 14.613281 -1.941406 13.8125 -0.984375 C 13.007812 -0.0351562 11.972656 0.4375 10.703125 0.4375 C 9.492188 0.4375 8.457031 -0.148438 7.59375 -1.328125 C 6.726562 -2.515625 5.992188 -4.023438 5.390625 -5.859375 C 4.785156 -7.703125 4.296875 -9.757812 3.921875 -12.03125 C 3.546875 -14.3125 3.257812 -16.546875 3.0625 -18.734375 C 2.863281 -20.921875 2.75 -22.929688 2.71875 -24.765625 C 2.6875 -26.609375 2.671875 -28.019531 2.671875 -29 C 2.671875 -29.75 2.6875 -30.859375 2.71875 -32.328125 C 2.75 -33.796875 2.773438 -35.421875 2.796875 -37.203125 C 2.828125 -38.984375 2.882812 -40.851562 2.96875 -42.8125 C 3.0625 -44.769531 3.164062 -46.625 3.28125 -48.375 C 3.394531 -50.132812 3.550781 -51.691406 3.75 -53.046875 C 3.957031 -54.398438 4.203125 -55.390625 4.484375 -56.015625 C 5.117188 -57.285156 6.628906 -58.535156 9.015625 -59.765625 C 11.410156 -61.003906 14.070312 -62.097656 17 -63.046875 C 19.9375 -64.003906 22.800781 -64.785156 25.59375 -65.390625 C 28.382812 -65.992188 30.53125 -66.296875 32.03125 -66.296875 C 32.71875 -66.296875 33.390625 -66.25 34.046875 -66.15625 C 34.710938 -66.070312 35.332031 -65.882812 35.90625 -65.59375 C 36.476562 -65.3125 36.9375 -64.910156 37.28125 -64.390625 C 37.632812 -63.867188 37.8125 -63.179688 37.8125 -62.328125 Z M 37.8125 -62.328125 "/></g></g><g transform="translate(179.337183, 130.845648)"><g><path d="M 39.96875 -58.953125 C 39.96875 -57.515625 39.40625 -56.207031 38.28125 -55.03125 C 37.15625 -53.851562 35.800781 -52.816406 34.21875 -51.921875 C 32.644531 -51.023438 31.019531 -50.289062 29.34375 -49.71875 C 27.675781 -49.144531 26.296875 -48.742188 25.203125 -48.515625 C 24.742188 -44.078125 24.382812 -39.65625 24.125 -35.25 C 23.863281 -30.851562 23.734375 -26.441406 23.734375 -22.015625 C 23.734375 -19.648438 23.789062 -17.316406 23.90625 -15.015625 C 24.019531 -12.710938 24.078125 -10.410156 24.078125 -8.109375 C 24.078125 -7.078125 23.976562 -5.941406 23.78125 -4.703125 C 23.582031 -3.460938 23.238281 -2.296875 22.75 -1.203125 C 22.257812 -0.109375 21.582031 0.804688 20.71875 1.546875 C 19.851562 2.296875 18.785156 2.671875 17.515625 2.671875 C 16.023438 2.671875 14.832031 2.253906 13.9375 1.421875 C 13.050781 0.585938 12.363281 -0.429688 11.875 -1.640625 C 11.382812 -2.847656 11.050781 -4.128906 10.875 -5.484375 C 10.707031 -6.835938 10.625 -8.0625 10.625 -9.15625 C 10.5 -12.601562 10.40625 -16.066406 10.34375 -19.546875 C 10.289062 -23.035156 10.265625 -26.53125 10.265625 -30.03125 C 10.265625 -32.96875 10.28125 -35.847656 10.3125 -38.671875 C 10.34375 -41.492188 10.359375 -44.367188 10.359375 -47.296875 C 9.554688 -47.179688 8.734375 -47.09375 7.890625 -47.03125 C 7.054688 -46.976562 6.210938 -46.953125 5.359375 -46.953125 C 4.660156 -46.953125 3.75 -47.023438 2.625 -47.171875 C 1.507812 -47.316406 0.4375 -47.578125 -0.59375 -47.953125 C -1.632812 -48.328125 -2.53125 -48.84375 -3.28125 -49.5 C -4.03125 -50.164062 -4.40625 -51.015625 -4.40625 -52.046875 C -4.40625 -53.773438 -3.726562 -55.285156 -2.375 -56.578125 C -1.019531 -57.878906 0.703125 -59.003906 2.796875 -59.953125 C 4.898438 -60.898438 7.234375 -61.703125 9.796875 -62.359375 C 12.359375 -63.023438 14.890625 -63.546875 17.390625 -63.921875 C 19.890625 -64.296875 22.191406 -64.566406 24.296875 -64.734375 C 26.398438 -64.910156 28.023438 -65 29.171875 -65 C 30.265625 -65 31.429688 -64.953125 32.671875 -64.859375 C 33.910156 -64.773438 35.078125 -64.53125 36.171875 -64.125 C 37.265625 -63.726562 38.171875 -63.125 38.890625 -62.3125 C 39.609375 -61.507812 39.96875 -60.390625 39.96875 -58.953125 Z M 39.96875 -58.953125 "/></g></g></g><g fill="#ffffff" fill-opacity="1"><g transform="translate(45.682139, 217.92222)"><g><path d="M 39.796875 -56.796875 C 39.796875 -52.597656 39.632812 -48.425781 39.3125 -44.28125 C 39 -40.132812 38.84375 -35.960938 38.84375 -31.765625 C 38.84375 -28.367188 38.941406 -25 39.140625 -21.65625 C 39.347656 -18.320312 39.453125 -14.957031 39.453125 -11.5625 C 39.453125 -10.644531 39.421875 -9.535156 39.359375 -8.234375 C 39.304688 -6.941406 39.117188 -5.691406 38.796875 -4.484375 C 38.484375 -3.273438 37.96875 -2.238281 37.25 -1.375 C 36.53125 -0.519531 35.507812 -0.09375 34.1875 -0.09375 C 32.457031 -0.09375 31.03125 -0.738281 29.90625 -2.03125 C 28.78125 -3.320312 28.078125 -4.773438 27.796875 -6.390625 C 26.703125 -4.316406 25.117188 -2.5625 23.046875 -1.125 C 20.972656 0.3125 18.726562 1.03125 16.3125 1.03125 C 13.726562 1.03125 11.5 0.140625 9.625 -1.640625 C 7.75 -3.421875 6.191406 -5.578125 4.953125 -8.109375 C 3.722656 -10.640625 2.804688 -13.285156 2.203125 -16.046875 C 1.597656 -18.816406 1.296875 -21.207031 1.296875 -23.21875 C 1.296875 -24.65625 1.378906 -26.296875 1.546875 -28.140625 C 1.722656 -29.984375 2.023438 -31.851562 2.453125 -33.75 C 2.890625 -35.644531 3.453125 -37.5 4.140625 -39.3125 C 4.828125 -41.125 5.703125 -42.75 6.765625 -44.1875 C 7.835938 -45.632812 9.109375 -46.785156 10.578125 -47.640625 C 12.046875 -48.503906 13.726562 -48.9375 15.625 -48.9375 C 17.695312 -48.9375 19.679688 -48.332031 21.578125 -47.125 C 23.472656 -45.914062 24.910156 -44.421875 25.890625 -42.640625 L 26.671875 -56.359375 C 26.734375 -57.453125 26.820312 -58.734375 26.9375 -60.203125 C 27.050781 -61.671875 27.289062 -63.066406 27.65625 -64.390625 C 28.03125 -65.710938 28.617188 -66.832031 29.421875 -67.75 C 30.234375 -68.675781 31.414062 -69.140625 32.96875 -69.140625 C 34.644531 -69.140625 35.941406 -68.734375 36.859375 -67.921875 C 37.773438 -67.117188 38.445312 -66.097656 38.875 -64.859375 C 39.3125 -63.628906 39.570312 -62.296875 39.65625 -60.859375 C 39.75 -59.421875 39.796875 -58.066406 39.796875 -56.796875 Z M 25.71875 -18.46875 C 25.71875 -19.789062 25.6875 -21.082031 25.625 -22.34375 C 25.570312 -23.613281 25.578125 -24.910156 25.640625 -26.234375 C 25.296875 -26.984375 24.890625 -27.800781 24.421875 -28.6875 C 23.960938 -29.582031 23.398438 -30.421875 22.734375 -31.203125 C 22.078125 -31.984375 21.34375 -32.628906 20.53125 -33.140625 C 19.726562 -33.660156 18.867188 -33.921875 17.953125 -33.921875 C 16.921875 -33.921875 16.085938 -33.601562 15.453125 -32.96875 C 14.816406 -32.34375 14.351562 -31.582031 14.0625 -30.6875 C 13.78125 -29.789062 13.59375 -28.820312 13.5 -27.78125 C 13.414062 -26.75 13.375 -25.863281 13.375 -25.125 C 13.375 -24.425781 13.429688 -23.398438 13.546875 -22.046875 C 13.660156 -20.703125 13.875 -19.335938 14.1875 -17.953125 C 14.507812 -16.566406 14.957031 -15.359375 15.53125 -14.328125 C 16.113281 -13.296875 16.894531 -12.78125 17.875 -12.78125 C 18.613281 -12.78125 19.359375 -12.9375 20.109375 -13.25 C 20.859375 -13.5625 21.5625 -13.960938 22.21875 -14.453125 C 22.882812 -14.941406 23.519531 -15.488281 24.125 -16.09375 C 24.726562 -16.695312 25.257812 -17.257812 25.71875 -17.78125 Z M 25.71875 -18.46875 "/></g></g><g transform="translate(88.580419, 217.92222)"><g><path d="M 38.75 -15.359375 C 38.75 -13.410156 38.128906 -11.5 36.890625 -9.625 C 35.660156 -7.75 34.109375 -6.078125 32.234375 -4.609375 C 30.367188 -3.148438 28.367188 -1.972656 26.234375 -1.078125 C 24.109375 -0.179688 22.15625 0.265625 20.375 0.265625 C 17.320312 0.265625 14.597656 -0.492188 12.203125 -2.015625 C 9.816406 -3.546875 7.816406 -5.488281 6.203125 -7.84375 C 4.597656 -10.207031 3.378906 -12.8125 2.546875 -15.65625 C 1.710938 -18.507812 1.296875 -21.289062 1.296875 -24 C 1.296875 -26.875 1.695312 -29.953125 2.5 -33.234375 C 3.3125 -36.515625 4.535156 -39.535156 6.171875 -42.296875 C 7.804688 -45.054688 9.875 -47.359375 12.375 -49.203125 C 14.882812 -51.046875 17.867188 -51.96875 21.328125 -51.96875 C 23.273438 -51.96875 25.140625 -51.632812 26.921875 -50.96875 C 28.710938 -50.3125 30.269531 -49.378906 31.59375 -48.171875 C 32.914062 -46.960938 33.976562 -45.519531 34.78125 -43.84375 C 35.59375 -42.175781 36 -40.304688 36 -38.234375 C 36 -35.535156 35.421875 -33.003906 34.265625 -30.640625 C 33.117188 -28.285156 31.59375 -26.242188 29.6875 -24.515625 C 27.789062 -22.785156 25.601562 -21.390625 23.125 -20.328125 C 20.65625 -19.265625 18.125 -18.675781 15.53125 -18.5625 C 15.757812 -16.894531 16.4375 -15.6875 17.5625 -14.9375 C 18.6875 -14.1875 20.023438 -13.8125 21.578125 -13.8125 C 22.734375 -13.8125 23.859375 -14.097656 24.953125 -14.671875 C 26.046875 -15.242188 27.109375 -15.890625 28.140625 -16.609375 C 29.171875 -17.335938 30.191406 -17.988281 31.203125 -18.5625 C 32.210938 -19.132812 33.234375 -19.421875 34.265625 -19.421875 C 35.421875 -19.421875 36.457031 -19.046875 37.375 -18.296875 C 38.289062 -17.546875 38.75 -16.566406 38.75 -15.359375 Z M 24.78125 -36.515625 C 24.78125 -37.265625 24.578125 -38.039062 24.171875 -38.84375 C 23.765625 -39.644531 23.128906 -40.046875 22.265625 -40.046875 C 21.003906 -40.046875 19.941406 -39.710938 19.078125 -39.046875 C 18.210938 -38.390625 17.492188 -37.554688 16.921875 -36.546875 C 16.347656 -35.546875 15.898438 -34.46875 15.578125 -33.3125 C 15.265625 -32.164062 15.078125 -31.101562 15.015625 -30.125 C 15.828125 -30.300781 16.789062 -30.53125 17.90625 -30.8125 C 19.03125 -31.101562 20.09375 -31.492188 21.09375 -31.984375 C 22.101562 -32.472656 22.96875 -33.085938 23.6875 -33.828125 C 24.414062 -34.578125 24.78125 -35.472656 24.78125 -36.515625 Z M 24.78125 -36.515625 "/></g></g><g transform="translate(128.198751, 217.92222)"><g><path d="M 41.6875 -29.4375 C 41.6875 -26.5 41.644531 -23.5625 41.5625 -20.625 C 41.476562 -17.695312 41.320312 -14.765625 41.09375 -11.828125 C 40.914062 -9.296875 40.679688 -6.585938 40.390625 -3.703125 C 40.109375 -0.828125 39.648438 2.03125 39.015625 4.875 C 38.378906 7.726562 37.539062 10.460938 36.5 13.078125 C 35.46875 15.691406 34.101562 18.003906 32.40625 20.015625 C 30.707031 22.035156 28.648438 23.648438 26.234375 24.859375 C 23.816406 26.066406 20.941406 26.671875 17.609375 26.671875 C 16.054688 26.671875 14.316406 26.425781 12.390625 25.9375 C 10.460938 25.445312 8.648438 24.738281 6.953125 23.8125 C 5.253906 22.894531 3.8125 21.757812 2.625 20.40625 C 1.445312 19.0625 0.859375 17.492188 0.859375 15.703125 C 0.859375 14.378906 1.332031 13.15625 2.28125 12.03125 C 3.238281 10.914062 4.460938 10.359375 5.953125 10.359375 C 6.878906 10.359375 7.757812 10.515625 8.59375 10.828125 C 9.425781 11.148438 10.257812 11.507812 11.09375 11.90625 C 11.925781 12.3125 12.726562 12.671875 13.5 12.984375 C 14.28125 13.304688 15.070312 13.46875 15.875 13.46875 C 18.007812 13.46875 19.796875 12.929688 21.234375 11.859375 C 22.671875 10.796875 23.820312 9.445312 24.6875 7.8125 C 25.550781 6.175781 26.195312 4.390625 26.625 2.453125 C 27.0625 0.523438 27.363281 -1.296875 27.53125 -3.015625 C 26.382812 -1.691406 25.046875 -0.785156 23.515625 -0.296875 C 21.992188 0.191406 20.398438 0.4375 18.734375 0.4375 C 15.679688 0.4375 13.085938 -0.09375 10.953125 -1.15625 C 8.828125 -2.226562 7.101562 -3.695312 5.78125 -5.5625 C 4.457031 -7.4375 3.476562 -9.609375 2.84375 -12.078125 C 2.21875 -14.554688 1.90625 -17.234375 1.90625 -20.109375 C 1.90625 -21.890625 2.085938 -23.898438 2.453125 -26.140625 C 2.828125 -28.390625 3.390625 -30.664062 4.140625 -32.96875 C 4.890625 -35.269531 5.820312 -37.515625 6.9375 -39.703125 C 8.0625 -41.890625 9.375 -43.816406 10.875 -45.484375 C 12.375 -47.160156 14.054688 -48.515625 15.921875 -49.546875 C 17.796875 -50.578125 19.851562 -51.09375 22.09375 -51.09375 C 24.28125 -51.09375 26.222656 -50.457031 27.921875 -49.1875 C 29.617188 -47.925781 30.613281 -46.144531 30.90625 -43.84375 C 31.539062 -45.050781 32.375 -46.242188 33.40625 -47.421875 C 34.4375 -48.609375 35.703125 -49.203125 37.203125 -49.203125 C 38.003906 -49.203125 38.675781 -48.796875 39.21875 -47.984375 C 39.769531 -47.179688 40.203125 -46.132812 40.515625 -44.84375 C 40.835938 -43.550781 41.082031 -42.140625 41.25 -40.609375 C 41.425781 -39.085938 41.539062 -37.59375 41.59375 -36.125 C 41.65625 -34.65625 41.6875 -33.316406 41.6875 -32.109375 C 41.6875 -30.898438 41.6875 -30.007812 41.6875 -29.4375 Z M 28.578125 -23.828125 C 28.578125 -24.691406 28.445312 -25.8125 28.1875 -27.1875 C 27.925781 -28.570312 27.550781 -29.894531 27.0625 -31.15625 C 26.570312 -32.425781 25.953125 -33.519531 25.203125 -34.4375 C 24.453125 -35.363281 23.5625 -35.828125 22.53125 -35.828125 C 21.207031 -35.828125 20.039062 -35.363281 19.03125 -34.4375 C 18.019531 -33.519531 17.171875 -32.410156 16.484375 -31.109375 C 15.796875 -29.816406 15.265625 -28.4375 14.890625 -26.96875 C 14.515625 -25.507812 14.328125 -24.257812 14.328125 -23.21875 C 14.328125 -22.46875 14.382812 -21.457031 14.5 -20.1875 C 14.613281 -18.925781 14.859375 -17.691406 15.234375 -16.484375 C 15.609375 -15.273438 16.113281 -14.238281 16.75 -13.375 C 17.382812 -12.507812 18.21875 -12.078125 19.25 -12.078125 C 20.800781 -12.078125 22.148438 -12.453125 23.296875 -13.203125 C 24.453125 -13.953125 25.414062 -14.898438 26.1875 -16.046875 C 26.96875 -17.203125 27.5625 -18.46875 27.96875 -19.84375 C 28.375 -21.226562 28.578125 -22.554688 28.578125 -23.828125 Z M 28.578125 -23.828125 "/></g></g><g transform="translate(173.427521, 217.92222)"><g><path d="M 38.75 -15.359375 C 38.75 -13.410156 38.128906 -11.5 36.890625 -9.625 C 35.660156 -7.75 34.109375 -6.078125 32.234375 -4.609375 C 30.367188 -3.148438 28.367188 -1.972656 26.234375 -1.078125 C 24.109375 -0.179688 22.15625 0.265625 20.375 0.265625 C 17.320312 0.265625 14.597656 -0.492188 12.203125 -2.015625 C 9.816406 -3.546875 7.816406 -5.488281 6.203125 -7.84375 C 4.597656 -10.207031 3.378906 -12.8125 2.546875 -15.65625 C 1.710938 -18.507812 1.296875 -21.289062 1.296875 -24 C 1.296875 -26.875 1.695312 -29.953125 2.5 -33.234375 C 3.3125 -36.515625 4.535156 -39.535156 6.171875 -42.296875 C 7.804688 -45.054688 9.875 -47.359375 12.375 -49.203125 C 14.882812 -51.046875 17.867188 -51.96875 21.328125 -51.96875 C 23.273438 -51.96875 25.140625 -51.632812 26.921875 -50.96875 C 28.710938 -50.3125 30.269531 -49.378906 31.59375 -48.171875 C 32.914062 -46.960938 33.976562 -45.519531 34.78125 -43.84375 C 35.59375 -42.175781 36 -40.304688 36 -38.234375 C 36 -35.535156 35.421875 -33.003906 34.265625 -30.640625 C 33.117188 -28.285156 31.59375 -26.242188 29.6875 -24.515625 C 27.789062 -22.785156 25.601562 -21.390625 23.125 -20.328125 C 20.65625 -19.265625 18.125 -18.675781 15.53125 -18.5625 C 15.757812 -16.894531 16.4375 -15.6875 17.5625 -14.9375 C 18.6875 -14.1875 20.023438 -13.8125 21.578125 -13.8125 C 22.734375 -13.8125 23.859375 -14.097656 24.953125 -14.671875 C 26.046875 -15.242188 27.109375 -15.890625 28.140625 -16.609375 C 29.171875 -17.335938 30.191406 -17.988281 31.203125 -18.5625 C 32.210938 -19.132812 33.234375 -19.421875 34.265625 -19.421875 C 35.421875 -19.421875 36.457031 -19.046875 37.375 -18.296875 C 38.289062 -17.546875 38.75 -16.566406 38.75 -15.359375 Z M 24.78125 -36.515625 C 24.78125 -37.265625 24.578125 -38.039062 24.171875 -38.84375 C 23.765625 -39.644531 23.128906 -40.046875 22.265625 -40.046875 C 21.003906 -40.046875 19.941406 -39.710938 19.078125 -39.046875 C 18.210938 -38.390625 17.492188 -37.554688 16.921875 -36.546875 C 16.347656 -35.546875 15.898438 -34.46875 15.578125 -33.3125 C 15.265625 -32.164062 15.078125 -31.101562 15.015625 -30.125 C 15.828125 -30.300781 16.789062 -30.53125 17.90625 -30.8125 C 19.03125 -31.101562 20.09375 -31.492188 21.09375 -31.984375 C 22.101562 -32.472656 22.96875 -33.085938 23.6875 -33.828125 C 24.414062 -34.578125 24.78125 -35.472656 24.78125 -36.515625 Z M 24.78125 -36.515625 "/></g></g><g transform="translate(213.045853, 217.92222)"><g><path d="M 27.109375 2.421875 C 26.128906 2.421875 25.347656 1.972656 24.765625 1.078125 C 24.191406 0.179688 23.757812 -0.835938 23.46875 -1.984375 C 23.1875 -3.140625 23 -4.304688 22.90625 -5.484375 C 22.820312 -6.660156 22.78125 -7.566406 22.78125 -8.203125 C 22.78125 -9.929688 22.878906 -11.65625 23.078125 -13.375 C 23.285156 -15.101562 23.519531 -16.828125 23.78125 -18.546875 C 24.039062 -20.273438 24.269531 -22.003906 24.46875 -23.734375 C 24.675781 -25.460938 24.78125 -27.191406 24.78125 -28.921875 C 24.78125 -29.609375 24.75 -30.351562 24.6875 -31.15625 C 24.625 -31.96875 24.492188 -32.734375 24.296875 -33.453125 C 24.097656 -34.171875 23.765625 -34.757812 23.296875 -35.21875 C 22.835938 -35.675781 22.238281 -35.90625 21.5 -35.90625 C 20.976562 -35.90625 20.398438 -35.488281 19.765625 -34.65625 C 19.128906 -33.820312 18.535156 -32.875 17.984375 -31.8125 C 17.441406 -30.75 16.984375 -29.679688 16.609375 -28.609375 C 16.242188 -27.546875 16.0625 -26.753906 16.0625 -26.234375 C 16.0625 -24.972656 16.070312 -23.691406 16.09375 -22.390625 C 16.125 -21.097656 16.140625 -19.789062 16.140625 -18.46875 L 16.140625 -13.46875 C 16.085938 -12.425781 16 -11.359375 15.875 -10.265625 C 15.757812 -9.171875 15.585938 -8.109375 15.359375 -7.078125 C 15.191406 -6.046875 14.929688 -5.050781 14.578125 -4.09375 C 14.234375 -3.144531 13.789062 -2.3125 13.25 -1.59375 C 12.707031 -0.875 12.0625 -0.285156 11.3125 0.171875 C 10.5625 0.628906 9.664062 0.859375 8.625 0.859375 C 7.476562 0.859375 6.53125 0.488281 5.78125 -0.25 C 5.03125 -1 4.425781 -1.960938 3.96875 -3.140625 C 3.507812 -4.328125 3.175781 -5.65625 2.96875 -7.125 C 2.769531 -8.59375 2.628906 -10.03125 2.546875 -11.4375 C 2.460938 -12.84375 2.429688 -14.132812 2.453125 -15.3125 C 2.484375 -16.5 2.5 -17.4375 2.5 -18.125 L 2.5 -22.1875 C 2.5 -24.375 2.457031 -26.53125 2.375 -28.65625 C 2.289062 -30.789062 2.25 -32.921875 2.25 -35.046875 C 2.25 -36.191406 2.257812 -37.65625 2.28125 -39.4375 C 2.3125 -41.226562 2.53125 -42.972656 2.9375 -44.671875 C 3.34375 -46.367188 4.003906 -47.820312 4.921875 -49.03125 C 5.835938 -50.238281 7.191406 -50.84375 8.984375 -50.84375 C 9.785156 -50.84375 10.5 -50.582031 11.125 -50.0625 C 11.757812 -49.539062 12.320312 -48.90625 12.8125 -48.15625 C 13.300781 -47.414062 13.703125 -46.613281 14.015625 -45.75 C 14.335938 -44.882812 14.585938 -44.132812 14.765625 -43.5 C 15.335938 -44.3125 16.007812 -45.085938 16.78125 -45.828125 C 17.5625 -46.578125 18.441406 -47.238281 19.421875 -47.8125 C 20.398438 -48.394531 21.492188 -48.859375 22.703125 -49.203125 C 23.910156 -49.546875 25.289062 -49.71875 26.84375 -49.71875 C 29.78125 -49.71875 32.066406 -49.007812 33.703125 -47.59375 C 35.347656 -46.1875 36.554688 -44.429688 37.328125 -42.328125 C 38.109375 -40.234375 38.582031 -37.976562 38.75 -35.5625 C 38.925781 -33.144531 39.015625 -30.957031 39.015625 -29 C 39.015625 -28.019531 38.925781 -26.566406 38.75 -24.640625 C 38.582031 -22.710938 38.3125 -20.582031 37.9375 -18.25 C 37.5625 -15.925781 37.054688 -13.539062 36.421875 -11.09375 C 35.796875 -8.644531 35.050781 -6.410156 34.1875 -4.390625 C 33.320312 -2.378906 32.296875 -0.742188 31.109375 0.515625 C 29.929688 1.785156 28.597656 2.421875 27.109375 2.421875 Z M 27.109375 2.421875 "/></g></g></g></svg>