<svg xmlns="http://www.w3.org/2000/svg" xmlns:xlink="http://www.w3.org/1999/xlink" width="500" zoomAndPan="magnify" viewBox="0 0 375 374.999991" height="500" preserveAspectRatio="xMidYMid meet" version="1.0"><defs><g/><clipPath id="cbd25ad5a1"><path d="M 0 209 L 375 209 L 375 345.84375 L 0 345.84375 Z M 0 209 " clip-rule="nonzero"/></clipPath><clipPath id="676d775a36"><path d="M 50 28.753906 L 326 28.753906 L 326 265 L 50 265 Z M 50 28.753906 " clip-rule="nonzero"/></clipPath></defs><g clip-path="url(#cbd25ad5a1)"><path fill="#8e85e6" d="M 54.800781 224.078125 L 56.3125 251.59375 C 56.410156 253.464844 57.117188 255.230469 58.304688 256.675781 C 66.609375 266.707031 103.835938 301.703125 187.730469 301.703125 C 271.625 301.703125 308.402344 267.15625 317.011719 256.859375 C 318.3125 255.308594 319.058594 253.378906 319.179688 251.351562 L 320.679688 224.09375 C 330.667969 218.625 340.980469 212.449219 340.980469 212.449219 C 357.191406 203.683594 375.28125 216.273438 375.316406 234.738281 C 375.371094 264.609375 351.976562 295.3125 320.421875 314.65625 C 284.84375 336.472656 231.734375 345.523438 187.753906 345.523438 C 143.769531 345.523438 90.660156 336.472656 55.082031 314.65625 C 23.527344 295.3125 0.136719 264.621094 0.191406 234.738281 C 0.222656 216.273438 18.316406 203.683594 34.527344 212.449219 C 34.527344 212.449219 44.820312 218.613281 54.800781 224.078125 Z M 54.800781 224.078125 " fill-opacity="1" fill-rule="nonzero"/></g><g clip-path="url(#676d775a36)"><path fill="#8e85e6" d="M 187.742188 28.808594 C 256.335938 28.808594 274.933594 30.40625 302.824219 33.605469 L 302.816406 33.605469 C 315.671875 35.082031 325.976562 44.628906 325.019531 57.558594 L 314.746094 197.207031 C 311.53125 198.136719 308.027344 199.308594 304.09375 200.625 C 283.488281 207.527344 251.179688 218.34375 187.742188 218.34375 C 124.300781 218.34375 91.996094 207.527344 71.386719 200.625 C 67.453125 199.308594 63.945312 198.132812 60.726562 197.203125 L 50.453125 57.558594 C 49.507812 44.628906 59.777344 34.847656 72.65625 33.605469 C 100.207031 30.9375 128.890625 28.808594 187.742188 28.808594 Z M 65.648438 264.121094 L 65.683594 264.609375 L 66.394531 264.773438 C 66.140625 264.554688 65.890625 264.335938 65.648438 264.121094 Z M 309.148438 264.757812 L 309.789062 264.609375 L 309.820312 264.164062 C 309.601562 264.359375 309.378906 264.558594 309.148438 264.757812 Z M 309.148438 264.757812 " fill-opacity="1" fill-rule="nonzero"/></g><g fill="#ffffff" fill-opacity="1"><g transform="translate(74.934096, 172.810455)"><g><path d="M 92.296875 -64.703125 C 92.296875 -62.492188 92.195312 -59.351562 92 -55.28125 C 91.800781 -51.207031 91.421875 -46.726562 90.859375 -41.84375 C 90.304688 -36.96875 89.523438 -31.992188 88.515625 -26.921875 C 87.515625 -21.847656 86.210938 -17.25 84.609375 -13.125 C 83.003906 -9 81.046875 -5.601562 78.734375 -2.9375 C 76.421875 -0.269531 73.65625 1.0625 70.4375 1.0625 C 67.414062 1.0625 64.644531 0.179688 62.125 -1.578125 C 59.613281 -3.335938 57.351562 -5.5 55.34375 -8.0625 C 53.332031 -10.632812 51.570312 -13.375 50.0625 -16.28125 C 48.5625 -19.195312 47.304688 -21.863281 46.296875 -24.28125 C 44.191406 -29.40625 42.082031 -34.457031 39.96875 -39.4375 C 37.851562 -44.414062 35.84375 -49.46875 33.9375 -54.59375 L 33.9375 -50.375 C 33.9375 -46.050781 33.910156 -41.75 33.859375 -37.46875 C 33.804688 -33.195312 33.476562 -28.953125 32.875 -24.734375 C 32.675781 -23.023438 32.453125 -21.039062 32.203125 -18.78125 C 31.953125 -16.519531 31.570312 -14.28125 31.0625 -12.0625 C 30.5625 -9.851562 29.832031 -7.789062 28.875 -5.875 C 27.925781 -3.96875 26.644531 -2.5625 25.03125 -1.65625 C 24.125 -1.15625 23.296875 -0.851562 22.546875 -0.75 C 21.796875 -0.65625 20.96875 -0.503906 20.0625 -0.296875 L 19.609375 -0.296875 C 17.296875 -0.296875 15.332031 -1.078125 13.71875 -2.640625 C 12.113281 -4.203125 10.757812 -6.210938 9.65625 -8.671875 C 8.550781 -11.128906 7.671875 -13.890625 7.015625 -16.953125 C 6.359375 -20.023438 5.851562 -23.046875 5.5 -26.015625 C 5.15625 -28.984375 4.929688 -31.722656 4.828125 -34.234375 C 4.722656 -36.742188 4.671875 -38.753906 4.671875 -40.265625 C 4.671875 -42.578125 4.769531 -45.96875 4.96875 -50.4375 C 5.175781 -54.914062 5.601562 -59.867188 6.25 -65.296875 C 6.90625 -70.734375 7.757812 -76.316406 8.8125 -82.046875 C 9.875 -87.773438 11.257812 -92.976562 12.96875 -97.65625 C 14.675781 -102.332031 16.738281 -106.148438 19.15625 -109.109375 C 21.570312 -112.078125 24.382812 -113.5625 27.59375 -113.5625 C 30.71875 -113.5625 33.507812 -112.351562 35.96875 -109.9375 C 38.4375 -107.53125 40.625 -104.664062 42.53125 -101.34375 C 44.4375 -98.03125 46.039062 -94.5625 47.34375 -90.9375 C 48.65625 -87.320312 49.765625 -84.304688 50.671875 -81.890625 C 52.378906 -77.171875 54.035156 -72.472656 55.640625 -67.796875 C 57.253906 -63.117188 58.816406 -58.367188 60.328125 -53.546875 C 60.429688 -53.335938 60.632812 -52.78125 60.9375 -51.875 C 61.238281 -50.976562 61.585938 -49.972656 61.984375 -48.859375 C 62.390625 -47.660156 62.894531 -46.304688 63.5 -44.796875 C 63.5 -46.097656 63.472656 -47.023438 63.421875 -47.578125 C 63.367188 -48.128906 63.34375 -48.628906 63.34375 -49.078125 C 63.34375 -49.535156 63.34375 -50.113281 63.34375 -50.8125 C 63.34375 -51.519531 63.34375 -52.628906 63.34375 -54.140625 C 63.238281 -57.460938 63.160156 -60.78125 63.109375 -64.09375 C 63.066406 -67.414062 63.046875 -70.6875 63.046875 -73.90625 C 63.046875 -75.3125 63.066406 -77.269531 63.109375 -79.78125 C 63.160156 -82.289062 63.3125 -84.976562 63.5625 -87.84375 C 63.820312 -90.71875 64.203125 -93.609375 64.703125 -96.515625 C 65.203125 -99.429688 65.929688 -102.070312 66.890625 -104.4375 C 67.847656 -106.800781 69.050781 -108.738281 70.5 -110.25 C 71.957031 -111.757812 73.742188 -112.515625 75.859375 -112.515625 C 78.367188 -112.515625 80.53125 -111.554688 82.34375 -109.640625 C 84.15625 -107.734375 85.664062 -105.296875 86.875 -102.328125 C 88.082031 -99.359375 89.035156 -96.039062 89.734375 -92.375 C 90.441406 -88.707031 90.992188 -85.113281 91.390625 -81.59375 C 91.796875 -78.070312 92.046875 -74.800781 92.140625 -71.78125 C 92.242188 -68.769531 92.296875 -66.410156 92.296875 -64.703125 Z M 92.296875 -64.703125 "/></g></g></g><g fill="#ffffff" fill-opacity="1"><g transform="translate(172.656517, 172.810455)"><g><path d="M 66.0625 -108.890625 C 66.0625 -105.066406 64.753906 -101.597656 62.140625 -98.484375 C 59.523438 -95.367188 56.332031 -92.578125 52.5625 -90.109375 C 48.789062 -87.648438 44.84375 -85.515625 40.71875 -83.703125 C 36.59375 -81.890625 33.023438 -80.378906 30.015625 -79.171875 C 30.015625 -77.066406 29.960938 -74.90625 29.859375 -72.6875 C 29.765625 -70.476562 29.613281 -68.269531 29.40625 -66.0625 C 32.625 -67.664062 36.242188 -69.171875 40.265625 -70.578125 C 44.285156 -71.984375 48.109375 -72.6875 51.734375 -72.6875 C 54.648438 -72.6875 57.035156 -72.082031 58.890625 -70.875 C 60.753906 -69.675781 61.6875 -67.566406 61.6875 -64.546875 C 61.6875 -61.234375 60.503906 -58.269531 58.140625 -55.65625 C 55.773438 -53.039062 52.929688 -50.726562 49.609375 -48.71875 C 46.296875 -46.707031 42.828125 -44.992188 39.203125 -43.578125 C 35.585938 -42.171875 32.523438 -41.066406 30.015625 -40.265625 C 30.015625 -36.953125 29.960938 -33.660156 29.859375 -30.390625 C 29.765625 -27.117188 29.613281 -23.875 29.40625 -20.65625 C 29.3125 -19.050781 29.132812 -17.039062 28.875 -14.625 C 28.625 -12.21875 28.125 -9.878906 27.375 -7.609375 C 26.625 -5.347656 25.539062 -3.390625 24.125 -1.734375 C 22.71875 -0.078125 20.910156 0.75 18.703125 0.75 C 16.585938 0.75 14.773438 -0.273438 13.265625 -2.328125 C 11.765625 -4.390625 10.484375 -7.03125 9.421875 -10.25 C 8.367188 -13.46875 7.515625 -17.0625 6.859375 -21.03125 C 6.203125 -25.007812 5.695312 -28.90625 5.34375 -32.71875 C 5 -36.539062 4.800781 -40.0625 4.75 -43.28125 C 4.695312 -46.5 4.671875 -48.960938 4.671875 -50.671875 C 4.671875 -51.984375 4.695312 -53.921875 4.75 -56.484375 C 4.800781 -59.046875 4.851562 -61.882812 4.90625 -65 C 4.957031 -68.113281 5.054688 -71.378906 5.203125 -74.796875 C 5.347656 -78.222656 5.519531 -81.46875 5.71875 -84.53125 C 5.925781 -87.601562 6.207031 -90.316406 6.5625 -92.671875 C 6.914062 -95.035156 7.34375 -96.769531 7.84375 -97.875 C 8.945312 -100.09375 11.582031 -102.28125 15.75 -104.4375 C 19.925781 -106.601562 24.578125 -108.515625 29.703125 -110.171875 C 34.835938 -111.828125 39.84375 -113.179688 44.71875 -114.234375 C 49.59375 -115.296875 53.335938 -115.828125 55.953125 -115.828125 C 57.160156 -115.828125 58.34375 -115.75 59.5 -115.59375 C 60.65625 -115.445312 61.734375 -115.125 62.734375 -114.625 C 63.742188 -114.125 64.550781 -113.421875 65.15625 -112.515625 C 65.757812 -111.609375 66.0625 -110.398438 66.0625 -108.890625 Z M 66.0625 -108.890625 "/></g></g></g><g fill="#ffffff" fill-opacity="1"><g transform="translate(234.93948, 172.810455)"><g><path d="M 69.828125 -103.015625 C 69.828125 -100.492188 68.847656 -98.203125 66.890625 -96.140625 C 64.929688 -94.078125 62.566406 -92.265625 59.796875 -90.703125 C 57.035156 -89.148438 54.195312 -87.867188 51.28125 -86.859375 C 48.363281 -85.859375 45.945312 -85.160156 44.03125 -84.765625 C 43.226562 -77.015625 42.597656 -69.296875 42.140625 -61.609375 C 41.691406 -53.921875 41.46875 -46.203125 41.46875 -38.453125 C 41.46875 -34.335938 41.566406 -30.265625 41.765625 -26.234375 C 41.972656 -22.210938 42.078125 -18.191406 42.078125 -14.171875 C 42.078125 -12.367188 41.898438 -10.382812 41.546875 -8.21875 C 41.191406 -6.0625 40.585938 -4.023438 39.734375 -2.109375 C 38.878906 -0.203125 37.695312 1.398438 36.1875 2.703125 C 34.6875 4.015625 32.828125 4.671875 30.609375 4.671875 C 27.992188 4.671875 25.90625 3.941406 24.34375 2.484375 C 22.789062 1.023438 21.585938 -0.753906 20.734375 -2.859375 C 19.878906 -4.972656 19.300781 -7.210938 19 -9.578125 C 18.695312 -11.941406 18.546875 -14.078125 18.546875 -15.984375 C 18.347656 -22.015625 18.195312 -28.070312 18.09375 -34.15625 C 18 -40.238281 17.953125 -46.347656 17.953125 -52.484375 C 17.953125 -57.609375 17.972656 -62.632812 18.015625 -67.5625 C 18.066406 -72.488281 18.09375 -77.515625 18.09375 -82.640625 C 16.6875 -82.441406 15.253906 -82.289062 13.796875 -82.1875 C 12.335938 -82.09375 10.851562 -82.046875 9.34375 -82.046875 C 8.144531 -82.046875 6.5625 -82.171875 4.59375 -82.421875 C 2.632812 -82.671875 0.753906 -83.125 -1.046875 -83.78125 C -2.859375 -84.4375 -4.414062 -85.34375 -5.71875 -86.5 C -7.03125 -87.65625 -7.6875 -89.132812 -7.6875 -90.9375 C -7.6875 -93.957031 -6.503906 -96.597656 -4.140625 -98.859375 C -1.785156 -101.117188 1.222656 -103.078125 4.890625 -104.734375 C 8.566406 -106.398438 12.640625 -107.8125 17.109375 -108.96875 C 21.585938 -110.125 26.015625 -111.023438 30.390625 -111.671875 C 34.765625 -112.328125 38.785156 -112.804688 42.453125 -113.109375 C 46.117188 -113.410156 48.957031 -113.5625 50.96875 -113.5625 C 52.882812 -113.5625 54.921875 -113.484375 57.078125 -113.328125 C 59.242188 -113.179688 61.28125 -112.753906 63.1875 -112.046875 C 65.101562 -111.347656 66.6875 -110.296875 67.9375 -108.890625 C 69.195312 -107.484375 69.828125 -105.523438 69.828125 -103.015625 Z M 69.828125 -103.015625 "/></g></g></g></svg>