<svg xmlns="http://www.w3.org/2000/svg" xmlns:xlink="http://www.w3.org/1999/xlink" width="308" zoomAndPan="magnify" viewBox="0 0 230.87999 42.75" height="57" preserveAspectRatio="xMidYMid meet" version="1.0"><defs><g/><clipPath id="a38936bafd"><path d="M 0.613281 20 L 41.546875 20 L 41.546875 35.828125 L 0.613281 35.828125 Z M 0.613281 20 " clip-rule="nonzero"/></clipPath><clipPath id="82f71c8d95"><path d="M 6 1.246094 L 37 1.246094 L 37 27 L 6 27 Z M 6 1.246094 " clip-rule="nonzero"/></clipPath></defs><g fill="#8e85e6" fill-opacity="1"><g transform="translate(54.268745, 30.495215)"><g><path d="M 21.53125 -15.09375 C 21.53125 -14.582031 21.503906 -13.847656 21.453125 -12.890625 C 21.410156 -11.941406 21.320312 -10.898438 21.1875 -9.765625 C 21.0625 -8.628906 20.878906 -7.46875 20.640625 -6.28125 C 20.410156 -5.09375 20.109375 -4.019531 19.734375 -3.0625 C 19.359375 -2.101562 18.898438 -1.3125 18.359375 -0.6875 C 17.828125 -0.0625 17.1875 0.25 16.4375 0.25 C 15.726562 0.25 15.082031 0.046875 14.5 -0.359375 C 13.914062 -0.773438 13.382812 -1.28125 12.90625 -1.875 C 12.4375 -2.476562 12.023438 -3.117188 11.671875 -3.796875 C 11.328125 -4.484375 11.035156 -5.109375 10.796875 -5.671875 C 10.304688 -6.859375 9.8125 -8.03125 9.3125 -9.1875 C 8.820312 -10.351562 8.359375 -11.535156 7.921875 -12.734375 L 7.921875 -11.75 C 7.921875 -10.738281 7.910156 -9.734375 7.890625 -8.734375 C 7.878906 -7.742188 7.804688 -6.753906 7.671875 -5.765625 C 7.617188 -5.367188 7.5625 -4.90625 7.5 -4.375 C 7.445312 -3.851562 7.363281 -3.332031 7.25 -2.8125 C 7.132812 -2.300781 6.960938 -1.820312 6.734375 -1.375 C 6.515625 -0.925781 6.21875 -0.597656 5.84375 -0.390625 C 5.632812 -0.273438 5.441406 -0.203125 5.265625 -0.171875 C 5.085938 -0.148438 4.894531 -0.117188 4.6875 -0.078125 L 4.578125 -0.078125 C 4.035156 -0.078125 3.578125 -0.253906 3.203125 -0.609375 C 2.828125 -0.972656 2.507812 -1.441406 2.25 -2.015625 C 1.988281 -2.597656 1.78125 -3.242188 1.625 -3.953125 C 1.476562 -4.671875 1.363281 -5.375 1.28125 -6.0625 C 1.195312 -6.757812 1.144531 -7.398438 1.125 -7.984375 C 1.101562 -8.566406 1.09375 -9.035156 1.09375 -9.390625 C 1.09375 -9.929688 1.113281 -10.722656 1.15625 -11.765625 C 1.207031 -12.804688 1.304688 -13.960938 1.453125 -15.234375 C 1.609375 -16.503906 1.804688 -17.804688 2.046875 -19.140625 C 2.296875 -20.472656 2.617188 -21.6875 3.015625 -22.78125 C 3.421875 -23.875 3.90625 -24.765625 4.46875 -25.453125 C 5.03125 -26.148438 5.6875 -26.5 6.4375 -26.5 C 7.164062 -26.5 7.816406 -26.21875 8.390625 -25.65625 C 8.960938 -25.09375 9.472656 -24.421875 9.921875 -23.640625 C 10.367188 -22.867188 10.742188 -22.0625 11.046875 -21.21875 C 11.347656 -20.375 11.609375 -19.671875 11.828125 -19.109375 C 12.222656 -18.003906 12.609375 -16.90625 12.984375 -15.8125 C 13.359375 -14.726562 13.722656 -13.617188 14.078125 -12.484375 C 14.097656 -12.441406 14.144531 -12.3125 14.21875 -12.09375 C 14.289062 -11.882812 14.375 -11.65625 14.46875 -11.40625 C 14.5625 -11.125 14.675781 -10.804688 14.8125 -10.453125 C 14.8125 -10.753906 14.804688 -10.96875 14.796875 -11.09375 C 14.785156 -11.226562 14.78125 -11.347656 14.78125 -11.453125 C 14.78125 -11.554688 14.78125 -11.691406 14.78125 -11.859375 C 14.78125 -12.023438 14.78125 -12.28125 14.78125 -12.625 C 14.757812 -13.40625 14.738281 -14.179688 14.71875 -14.953125 C 14.707031 -15.722656 14.703125 -16.484375 14.703125 -17.234375 C 14.703125 -17.566406 14.707031 -18.023438 14.71875 -18.609375 C 14.738281 -19.203125 14.773438 -19.832031 14.828125 -20.5 C 14.890625 -21.164062 14.976562 -21.835938 15.09375 -22.515625 C 15.207031 -23.203125 15.375 -23.816406 15.59375 -24.359375 C 15.820312 -24.910156 16.101562 -25.363281 16.4375 -25.71875 C 16.78125 -26.070312 17.203125 -26.25 17.703125 -26.25 C 18.285156 -26.25 18.785156 -26.023438 19.203125 -25.578125 C 19.628906 -25.128906 19.984375 -24.5625 20.265625 -23.875 C 20.546875 -23.1875 20.769531 -22.410156 20.9375 -21.546875 C 21.101562 -20.691406 21.234375 -19.851562 21.328125 -19.03125 C 21.421875 -18.207031 21.476562 -17.441406 21.5 -16.734375 C 21.519531 -16.035156 21.53125 -15.488281 21.53125 -15.09375 Z M 21.53125 -15.09375 "/></g></g></g><g fill="#8e85e6" fill-opacity="1"><g transform="translate(77.066399, 30.495215)"><g><path d="M 15.40625 -25.40625 C 15.40625 -24.507812 15.097656 -23.695312 14.484375 -22.96875 C 13.878906 -22.25 13.132812 -21.597656 12.25 -21.015625 C 11.375 -20.441406 10.457031 -19.941406 9.5 -19.515625 C 8.539062 -19.097656 7.707031 -18.75 7 -18.46875 C 7 -17.976562 6.988281 -17.472656 6.96875 -16.953125 C 6.945312 -16.441406 6.910156 -15.925781 6.859375 -15.40625 C 7.609375 -15.78125 8.453125 -16.128906 9.390625 -16.453125 C 10.328125 -16.785156 11.21875 -16.953125 12.0625 -16.953125 C 12.75 -16.953125 13.304688 -16.8125 13.734375 -16.53125 C 14.171875 -16.25 14.390625 -15.757812 14.390625 -15.0625 C 14.390625 -14.289062 14.113281 -13.597656 13.5625 -12.984375 C 13.007812 -12.367188 12.347656 -11.828125 11.578125 -11.359375 C 10.804688 -10.890625 9.992188 -10.488281 9.140625 -10.15625 C 8.296875 -9.832031 7.582031 -9.578125 7 -9.390625 C 7 -8.617188 6.988281 -7.851562 6.96875 -7.09375 C 6.945312 -6.332031 6.910156 -5.578125 6.859375 -4.828125 C 6.835938 -4.441406 6.796875 -3.96875 6.734375 -3.40625 C 6.679688 -2.84375 6.566406 -2.296875 6.390625 -1.765625 C 6.210938 -1.242188 5.957031 -0.789062 5.625 -0.40625 C 5.300781 -0.0195312 4.878906 0.171875 4.359375 0.171875 C 3.867188 0.171875 3.445312 -0.0664062 3.09375 -0.546875 C 2.738281 -1.023438 2.4375 -1.640625 2.1875 -2.390625 C 1.945312 -3.140625 1.75 -3.976562 1.59375 -4.90625 C 1.445312 -5.832031 1.332031 -6.738281 1.25 -7.625 C 1.164062 -8.519531 1.117188 -9.34375 1.109375 -10.09375 C 1.097656 -10.84375 1.09375 -11.421875 1.09375 -11.828125 C 1.09375 -12.128906 1.097656 -12.578125 1.109375 -13.171875 C 1.117188 -13.773438 1.128906 -14.4375 1.140625 -15.15625 C 1.148438 -15.882812 1.171875 -16.648438 1.203125 -17.453125 C 1.242188 -18.253906 1.285156 -19.007812 1.328125 -19.71875 C 1.378906 -20.4375 1.445312 -21.070312 1.53125 -21.625 C 1.613281 -22.175781 1.710938 -22.582031 1.828125 -22.84375 C 2.085938 -23.351562 2.703125 -23.859375 3.671875 -24.359375 C 4.648438 -24.867188 5.734375 -25.316406 6.921875 -25.703125 C 8.117188 -26.085938 9.285156 -26.40625 10.421875 -26.65625 C 11.566406 -26.90625 12.441406 -27.03125 13.046875 -27.03125 C 13.328125 -27.03125 13.601562 -27.007812 13.875 -26.96875 C 14.144531 -26.9375 14.394531 -26.859375 14.625 -26.734375 C 14.863281 -26.617188 15.050781 -26.457031 15.1875 -26.25 C 15.332031 -26.039062 15.40625 -25.757812 15.40625 -25.40625 Z M 15.40625 -25.40625 "/></g></g></g><g fill="#8e85e6" fill-opacity="1"><g transform="translate(91.596386, 30.495215)"><g><path d="M 16.296875 -24.03125 C 16.296875 -23.445312 16.066406 -22.910156 15.609375 -22.421875 C 15.148438 -21.941406 14.597656 -21.519531 13.953125 -21.15625 C 13.304688 -20.800781 12.640625 -20.503906 11.953125 -20.265625 C 11.273438 -20.035156 10.71875 -19.875 10.28125 -19.78125 C 10.09375 -17.96875 9.941406 -16.164062 9.828125 -14.375 C 9.722656 -12.582031 9.671875 -10.78125 9.671875 -8.96875 C 9.671875 -8.007812 9.691406 -7.0625 9.734375 -6.125 C 9.785156 -5.1875 9.8125 -4.25 9.8125 -3.3125 C 9.8125 -2.882812 9.769531 -2.414062 9.6875 -1.90625 C 9.613281 -1.40625 9.472656 -0.929688 9.265625 -0.484375 C 9.066406 -0.046875 8.789062 0.320312 8.4375 0.625 C 8.09375 0.9375 7.660156 1.09375 7.140625 1.09375 C 6.535156 1.09375 6.050781 0.921875 5.6875 0.578125 C 5.320312 0.242188 5.039062 -0.164062 4.84375 -0.65625 C 4.644531 -1.15625 4.507812 -1.679688 4.4375 -2.234375 C 4.363281 -2.785156 4.328125 -3.285156 4.328125 -3.734375 C 4.273438 -5.140625 4.238281 -6.550781 4.21875 -7.96875 C 4.195312 -9.382812 4.1875 -10.8125 4.1875 -12.25 C 4.1875 -13.445312 4.191406 -14.617188 4.203125 -15.765625 C 4.210938 -16.910156 4.21875 -18.082031 4.21875 -19.28125 C 3.894531 -19.238281 3.5625 -19.203125 3.21875 -19.171875 C 2.875 -19.148438 2.53125 -19.140625 2.1875 -19.140625 C 1.90625 -19.140625 1.535156 -19.164062 1.078125 -19.21875 C 0.617188 -19.28125 0.179688 -19.390625 -0.234375 -19.546875 C -0.660156 -19.703125 -1.023438 -19.910156 -1.328125 -20.171875 C -1.640625 -20.441406 -1.796875 -20.789062 -1.796875 -21.21875 C -1.796875 -21.914062 -1.519531 -22.53125 -0.96875 -23.0625 C -0.414062 -23.59375 0.285156 -24.050781 1.140625 -24.4375 C 1.992188 -24.820312 2.941406 -25.148438 3.984375 -25.421875 C 5.035156 -25.691406 6.070312 -25.898438 7.09375 -26.046875 C 8.113281 -26.203125 9.050781 -26.316406 9.90625 -26.390625 C 10.757812 -26.460938 11.421875 -26.5 11.890625 -26.5 C 12.335938 -26.5 12.8125 -26.476562 13.3125 -26.4375 C 13.820312 -26.40625 14.296875 -26.304688 14.734375 -26.140625 C 15.179688 -25.972656 15.550781 -25.722656 15.84375 -25.390625 C 16.144531 -25.066406 16.296875 -24.613281 16.296875 -24.03125 Z M 16.296875 -24.03125 "/></g></g></g><g fill="#8e85e6" fill-opacity="1"><g transform="translate(105.000563, 30.495215)"><g><path d="M 16.21875 -23.15625 C 16.21875 -21.4375 16.148438 -19.734375 16.015625 -18.046875 C 15.890625 -16.359375 15.828125 -14.660156 15.828125 -12.953125 C 15.828125 -11.566406 15.867188 -10.191406 15.953125 -8.828125 C 16.035156 -7.472656 16.078125 -6.101562 16.078125 -4.71875 C 16.078125 -4.34375 16.066406 -3.890625 16.046875 -3.359375 C 16.023438 -2.828125 15.945312 -2.316406 15.8125 -1.828125 C 15.6875 -1.335938 15.476562 -0.914062 15.1875 -0.5625 C 14.894531 -0.207031 14.476562 -0.03125 13.9375 -0.03125 C 13.226562 -0.03125 12.644531 -0.296875 12.1875 -0.828125 C 11.726562 -1.359375 11.441406 -1.953125 11.328125 -2.609375 C 10.878906 -1.765625 10.234375 -1.046875 9.390625 -0.453125 C 8.546875 0.128906 7.632812 0.421875 6.65625 0.421875 C 5.59375 0.421875 4.679688 0.0546875 3.921875 -0.671875 C 3.160156 -1.398438 2.523438 -2.28125 2.015625 -3.3125 C 1.515625 -4.34375 1.140625 -5.421875 0.890625 -6.546875 C 0.648438 -7.671875 0.53125 -8.644531 0.53125 -9.46875 C 0.53125 -10.050781 0.5625 -10.71875 0.625 -11.46875 C 0.695312 -12.21875 0.820312 -12.976562 1 -13.75 C 1.175781 -14.53125 1.40625 -15.289062 1.6875 -16.03125 C 1.96875 -16.769531 2.320312 -17.429688 2.75 -18.015625 C 3.1875 -18.597656 3.703125 -19.066406 4.296875 -19.421875 C 4.898438 -19.773438 5.59375 -19.953125 6.375 -19.953125 C 7.21875 -19.953125 8.023438 -19.703125 8.796875 -19.203125 C 9.566406 -18.710938 10.15625 -18.101562 10.5625 -17.375 L 10.875 -22.984375 C 10.894531 -23.421875 10.925781 -23.9375 10.96875 -24.53125 C 11.019531 -25.132812 11.117188 -25.707031 11.265625 -26.25 C 11.421875 -26.789062 11.660156 -27.25 11.984375 -27.625 C 12.316406 -28 12.800781 -28.1875 13.4375 -28.1875 C 14.125 -28.1875 14.65625 -28.019531 15.03125 -27.6875 C 15.40625 -27.363281 15.675781 -26.945312 15.84375 -26.4375 C 16.019531 -25.9375 16.125 -25.390625 16.15625 -24.796875 C 16.195312 -24.210938 16.21875 -23.664062 16.21875 -23.15625 Z M 10.484375 -7.53125 C 10.484375 -8.070312 10.472656 -8.597656 10.453125 -9.109375 C 10.429688 -9.628906 10.429688 -10.160156 10.453125 -10.703125 C 10.304688 -11.003906 10.140625 -11.335938 9.953125 -11.703125 C 9.765625 -12.066406 9.535156 -12.40625 9.265625 -12.71875 C 8.992188 -13.03125 8.691406 -13.289062 8.359375 -13.5 C 8.035156 -13.71875 7.6875 -13.828125 7.3125 -13.828125 C 6.894531 -13.828125 6.554688 -13.695312 6.296875 -13.4375 C 6.035156 -13.175781 5.847656 -12.863281 5.734375 -12.5 C 5.617188 -12.144531 5.539062 -11.753906 5.5 -11.328125 C 5.46875 -10.910156 5.453125 -10.546875 5.453125 -10.234375 C 5.453125 -9.953125 5.472656 -9.535156 5.515625 -8.984375 C 5.566406 -8.429688 5.65625 -7.875 5.78125 -7.3125 C 5.914062 -6.75 6.097656 -6.253906 6.328125 -5.828125 C 6.566406 -5.410156 6.882812 -5.203125 7.28125 -5.203125 C 7.582031 -5.203125 7.882812 -5.265625 8.1875 -5.390625 C 8.5 -5.523438 8.789062 -5.691406 9.0625 -5.890625 C 9.332031 -6.085938 9.585938 -6.3125 9.828125 -6.5625 C 10.078125 -6.8125 10.296875 -7.039062 10.484375 -7.25 Z M 10.484375 -7.53125 "/></g></g></g><g fill="#8e85e6" fill-opacity="1"><g transform="translate(122.485802, 30.495215)"><g><path d="M 15.796875 -6.265625 C 15.796875 -5.460938 15.539062 -4.679688 15.03125 -3.921875 C 14.53125 -3.160156 13.898438 -2.476562 13.140625 -1.875 C 12.378906 -1.28125 11.5625 -0.800781 10.6875 -0.4375 C 9.820312 -0.0703125 9.023438 0.109375 8.296875 0.109375 C 7.054688 0.109375 5.945312 -0.203125 4.96875 -0.828125 C 4 -1.453125 3.1875 -2.242188 2.53125 -3.203125 C 1.875 -4.160156 1.375 -5.21875 1.03125 -6.375 C 0.695312 -7.539062 0.53125 -8.675781 0.53125 -9.78125 C 0.53125 -10.957031 0.691406 -12.210938 1.015625 -13.546875 C 1.347656 -14.878906 1.847656 -16.109375 2.515625 -17.234375 C 3.179688 -18.367188 4.023438 -19.3125 5.046875 -20.0625 C 6.066406 -20.8125 7.28125 -21.1875 8.6875 -21.1875 C 9.488281 -21.1875 10.25 -21.050781 10.96875 -20.78125 C 11.695312 -20.507812 12.332031 -20.125 12.875 -19.625 C 13.414062 -19.132812 13.847656 -18.550781 14.171875 -17.875 C 14.503906 -17.195312 14.671875 -16.4375 14.671875 -15.59375 C 14.671875 -14.488281 14.4375 -13.453125 13.96875 -12.484375 C 13.5 -11.523438 12.875 -10.691406 12.09375 -9.984375 C 11.320312 -9.285156 10.429688 -8.71875 9.421875 -8.28125 C 8.421875 -7.851562 7.390625 -7.613281 6.328125 -7.5625 C 6.421875 -6.882812 6.695312 -6.390625 7.15625 -6.078125 C 7.613281 -5.773438 8.160156 -5.625 8.796875 -5.625 C 9.265625 -5.625 9.722656 -5.738281 10.171875 -5.96875 C 10.617188 -6.207031 11.050781 -6.472656 11.46875 -6.765625 C 11.894531 -7.066406 12.3125 -7.332031 12.71875 -7.5625 C 13.125 -7.800781 13.539062 -7.921875 13.96875 -7.921875 C 14.4375 -7.921875 14.859375 -7.765625 15.234375 -7.453125 C 15.609375 -7.148438 15.796875 -6.753906 15.796875 -6.265625 Z M 10.09375 -14.890625 C 10.09375 -15.191406 10.007812 -15.503906 9.84375 -15.828125 C 9.6875 -16.160156 9.429688 -16.328125 9.078125 -16.328125 C 8.554688 -16.328125 8.117188 -16.191406 7.765625 -15.921875 C 7.421875 -15.648438 7.128906 -15.304688 6.890625 -14.890625 C 6.660156 -14.484375 6.476562 -14.046875 6.34375 -13.578125 C 6.21875 -13.109375 6.144531 -12.675781 6.125 -12.28125 C 6.445312 -12.351562 6.835938 -12.445312 7.296875 -12.5625 C 7.753906 -12.675781 8.1875 -12.832031 8.59375 -13.03125 C 9.007812 -13.226562 9.363281 -13.476562 9.65625 -13.78125 C 9.945312 -14.09375 10.09375 -14.460938 10.09375 -14.890625 Z M 10.09375 -14.890625 "/></g></g></g><g fill="#8e85e6" fill-opacity="1"><g transform="translate(138.634141, 30.495215)"><g><path d="M 17 -12 C 17 -10.800781 16.976562 -9.601562 16.9375 -8.40625 C 16.90625 -7.207031 16.84375 -6.015625 16.75 -4.828125 C 16.675781 -3.785156 16.582031 -2.675781 16.46875 -1.5 C 16.351562 -0.332031 16.164062 0.828125 15.90625 1.984375 C 15.644531 3.148438 15.300781 4.265625 14.875 5.328125 C 14.457031 6.398438 13.898438 7.34375 13.203125 8.15625 C 12.515625 8.976562 11.675781 9.632812 10.6875 10.125 C 9.707031 10.625 8.535156 10.875 7.171875 10.875 C 6.546875 10.875 5.835938 10.773438 5.046875 10.578125 C 4.265625 10.378906 3.523438 10.09375 2.828125 9.71875 C 2.140625 9.34375 1.554688 8.878906 1.078125 8.328125 C 0.597656 7.773438 0.359375 7.132812 0.359375 6.40625 C 0.359375 5.863281 0.550781 5.363281 0.9375 4.90625 C 1.320312 4.445312 1.816406 4.21875 2.421875 4.21875 C 2.796875 4.21875 3.15625 4.28125 3.5 4.40625 C 3.84375 4.539062 4.179688 4.691406 4.515625 4.859375 C 4.859375 5.023438 5.1875 5.171875 5.5 5.296875 C 5.820312 5.421875 6.144531 5.484375 6.46875 5.484375 C 7.34375 5.484375 8.070312 5.265625 8.65625 4.828125 C 9.238281 4.398438 9.707031 3.851562 10.0625 3.1875 C 10.414062 2.519531 10.679688 1.789062 10.859375 1 C 11.035156 0.21875 11.15625 -0.523438 11.21875 -1.234375 C 10.75 -0.691406 10.203125 -0.320312 9.578125 -0.125 C 8.960938 0.0703125 8.316406 0.171875 7.640625 0.171875 C 6.390625 0.171875 5.332031 -0.0390625 4.46875 -0.46875 C 3.601562 -0.90625 2.898438 -1.503906 2.359375 -2.265625 C 1.816406 -3.023438 1.414062 -3.910156 1.15625 -4.921875 C 0.90625 -5.929688 0.78125 -7.023438 0.78125 -8.203125 C 0.78125 -8.929688 0.851562 -9.75 1 -10.65625 C 1.15625 -11.570312 1.382812 -12.5 1.6875 -13.4375 C 1.988281 -14.375 2.367188 -15.285156 2.828125 -16.171875 C 3.285156 -17.066406 3.816406 -17.851562 4.421875 -18.53125 C 5.035156 -19.21875 5.722656 -19.769531 6.484375 -20.1875 C 7.253906 -20.613281 8.097656 -20.828125 9.015625 -20.828125 C 9.898438 -20.828125 10.6875 -20.566406 11.375 -20.046875 C 12.070312 -19.535156 12.476562 -18.8125 12.59375 -17.875 C 12.851562 -18.363281 13.191406 -18.847656 13.609375 -19.328125 C 14.035156 -19.816406 14.554688 -20.0625 15.171875 -20.0625 C 15.492188 -20.0625 15.765625 -19.894531 15.984375 -19.5625 C 16.210938 -19.238281 16.390625 -18.8125 16.515625 -18.28125 C 16.648438 -17.75 16.75 -17.171875 16.8125 -16.546875 C 16.882812 -15.929688 16.929688 -15.320312 16.953125 -14.71875 C 16.984375 -14.125 17 -13.578125 17 -13.078125 C 17 -12.585938 17 -12.226562 17 -12 Z M 11.640625 -9.71875 C 11.640625 -10.0625 11.585938 -10.515625 11.484375 -11.078125 C 11.378906 -11.640625 11.226562 -12.175781 11.03125 -12.6875 C 10.832031 -13.207031 10.578125 -13.65625 10.265625 -14.03125 C 9.960938 -14.414062 9.601562 -14.609375 9.1875 -14.609375 C 8.644531 -14.609375 8.164062 -14.414062 7.75 -14.03125 C 7.34375 -13.65625 7 -13.203125 6.71875 -12.671875 C 6.4375 -12.148438 6.21875 -11.585938 6.0625 -10.984375 C 5.914062 -10.390625 5.84375 -9.882812 5.84375 -9.46875 C 5.84375 -9.164062 5.863281 -8.753906 5.90625 -8.234375 C 5.957031 -7.710938 6.054688 -7.207031 6.203125 -6.71875 C 6.359375 -6.226562 6.566406 -5.804688 6.828125 -5.453125 C 7.085938 -5.097656 7.425781 -4.921875 7.84375 -4.921875 C 8.476562 -4.921875 9.03125 -5.070312 9.5 -5.375 C 9.96875 -5.6875 10.359375 -6.078125 10.671875 -6.546875 C 10.992188 -7.015625 11.234375 -7.53125 11.390625 -8.09375 C 11.554688 -8.65625 11.640625 -9.195312 11.640625 -9.71875 Z M 11.640625 -9.71875 "/></g></g></g><g fill="#8e85e6" fill-opacity="1"><g transform="translate(157.069282, 30.495215)"><g><path d="M 15.796875 -6.265625 C 15.796875 -5.460938 15.539062 -4.679688 15.03125 -3.921875 C 14.53125 -3.160156 13.898438 -2.476562 13.140625 -1.875 C 12.378906 -1.28125 11.5625 -0.800781 10.6875 -0.4375 C 9.820312 -0.0703125 9.023438 0.109375 8.296875 0.109375 C 7.054688 0.109375 5.945312 -0.203125 4.96875 -0.828125 C 4 -1.453125 3.1875 -2.242188 2.53125 -3.203125 C 1.875 -4.160156 1.375 -5.21875 1.03125 -6.375 C 0.695312 -7.539062 0.53125 -8.675781 0.53125 -9.78125 C 0.53125 -10.957031 0.691406 -12.210938 1.015625 -13.546875 C 1.347656 -14.878906 1.847656 -16.109375 2.515625 -17.234375 C 3.179688 -18.367188 4.023438 -19.3125 5.046875 -20.0625 C 6.066406 -20.8125 7.28125 -21.1875 8.6875 -21.1875 C 9.488281 -21.1875 10.25 -21.050781 10.96875 -20.78125 C 11.695312 -20.507812 12.332031 -20.125 12.875 -19.625 C 13.414062 -19.132812 13.847656 -18.550781 14.171875 -17.875 C 14.503906 -17.195312 14.671875 -16.4375 14.671875 -15.59375 C 14.671875 -14.488281 14.4375 -13.453125 13.96875 -12.484375 C 13.5 -11.523438 12.875 -10.691406 12.09375 -9.984375 C 11.320312 -9.285156 10.429688 -8.71875 9.421875 -8.28125 C 8.421875 -7.851562 7.390625 -7.613281 6.328125 -7.5625 C 6.421875 -6.882812 6.695312 -6.390625 7.15625 -6.078125 C 7.613281 -5.773438 8.160156 -5.625 8.796875 -5.625 C 9.265625 -5.625 9.722656 -5.738281 10.171875 -5.96875 C 10.617188 -6.207031 11.050781 -6.472656 11.46875 -6.765625 C 11.894531 -7.066406 12.3125 -7.332031 12.71875 -7.5625 C 13.125 -7.800781 13.539062 -7.921875 13.96875 -7.921875 C 14.4375 -7.921875 14.859375 -7.765625 15.234375 -7.453125 C 15.609375 -7.148438 15.796875 -6.753906 15.796875 -6.265625 Z M 10.09375 -14.890625 C 10.09375 -15.191406 10.007812 -15.503906 9.84375 -15.828125 C 9.6875 -16.160156 9.429688 -16.328125 9.078125 -16.328125 C 8.554688 -16.328125 8.117188 -16.191406 7.765625 -15.921875 C 7.421875 -15.648438 7.128906 -15.304688 6.890625 -14.890625 C 6.660156 -14.484375 6.476562 -14.046875 6.34375 -13.578125 C 6.21875 -13.109375 6.144531 -12.675781 6.125 -12.28125 C 6.445312 -12.351562 6.835938 -12.445312 7.296875 -12.5625 C 7.753906 -12.675781 8.1875 -12.832031 8.59375 -13.03125 C 9.007812 -13.226562 9.363281 -13.476562 9.65625 -13.78125 C 9.945312 -14.09375 10.09375 -14.460938 10.09375 -14.890625 Z M 10.09375 -14.890625 "/></g></g></g><g fill="#8e85e6" fill-opacity="1"><g transform="translate(173.217621, 30.495215)"><g><path d="M 11.046875 0.984375 C 10.648438 0.984375 10.332031 0.800781 10.09375 0.4375 C 9.863281 0.0703125 9.6875 -0.34375 9.5625 -0.8125 C 9.445312 -1.28125 9.375 -1.753906 9.34375 -2.234375 C 9.3125 -2.710938 9.296875 -3.082031 9.296875 -3.34375 C 9.296875 -4.039062 9.332031 -4.742188 9.40625 -5.453125 C 9.488281 -6.160156 9.582031 -6.863281 9.6875 -7.5625 C 9.800781 -8.269531 9.894531 -8.972656 9.96875 -9.671875 C 10.050781 -10.378906 10.09375 -11.082031 10.09375 -11.78125 C 10.09375 -12.0625 10.082031 -12.363281 10.0625 -12.6875 C 10.039062 -13.019531 9.988281 -13.332031 9.90625 -13.625 C 9.820312 -13.925781 9.6875 -14.171875 9.5 -14.359375 C 9.3125 -14.546875 9.066406 -14.640625 8.765625 -14.640625 C 8.546875 -14.640625 8.304688 -14.46875 8.046875 -14.125 C 7.796875 -13.789062 7.554688 -13.40625 7.328125 -12.96875 C 7.109375 -12.53125 6.921875 -12.09375 6.765625 -11.65625 C 6.617188 -11.226562 6.546875 -10.910156 6.546875 -10.703125 C 6.546875 -10.179688 6.550781 -9.65625 6.5625 -9.125 C 6.570312 -8.601562 6.578125 -8.070312 6.578125 -7.53125 L 6.578125 -5.484375 C 6.554688 -5.066406 6.519531 -4.632812 6.46875 -4.1875 C 6.425781 -3.738281 6.359375 -3.304688 6.265625 -2.890625 C 6.191406 -2.460938 6.082031 -2.054688 5.9375 -1.671875 C 5.800781 -1.285156 5.617188 -0.945312 5.390625 -0.65625 C 5.171875 -0.363281 4.910156 -0.125 4.609375 0.0625 C 4.304688 0.257812 3.941406 0.359375 3.515625 0.359375 C 3.046875 0.359375 2.660156 0.207031 2.359375 -0.09375 C 2.054688 -0.40625 1.8125 -0.800781 1.625 -1.28125 C 1.4375 -1.757812 1.300781 -2.296875 1.21875 -2.890625 C 1.132812 -3.492188 1.070312 -4.082031 1.03125 -4.65625 C 1 -5.238281 0.988281 -5.769531 1 -6.25 C 1.007812 -6.726562 1.015625 -7.109375 1.015625 -7.390625 L 1.015625 -9.046875 C 1.015625 -9.929688 1 -10.804688 0.96875 -11.671875 C 0.9375 -12.546875 0.921875 -13.414062 0.921875 -14.28125 C 0.921875 -14.75 0.925781 -15.347656 0.9375 -16.078125 C 0.945312 -16.804688 1.03125 -17.515625 1.1875 -18.203125 C 1.351562 -18.898438 1.625 -19.492188 2 -19.984375 C 2.375 -20.472656 2.925781 -20.71875 3.65625 -20.71875 C 3.988281 -20.71875 4.28125 -20.613281 4.53125 -20.40625 C 4.789062 -20.195312 5.019531 -19.9375 5.21875 -19.625 C 5.425781 -19.320312 5.59375 -18.992188 5.71875 -18.640625 C 5.84375 -18.296875 5.941406 -17.992188 6.015625 -17.734375 C 6.253906 -18.066406 6.53125 -18.382812 6.84375 -18.6875 C 7.15625 -18.988281 7.507812 -19.253906 7.90625 -19.484375 C 8.3125 -19.722656 8.757812 -19.910156 9.25 -20.046875 C 9.75 -20.191406 10.3125 -20.265625 10.9375 -20.265625 C 12.132812 -20.265625 13.066406 -19.976562 13.734375 -19.40625 C 14.410156 -18.832031 14.90625 -18.113281 15.21875 -17.25 C 15.53125 -16.394531 15.722656 -15.472656 15.796875 -14.484375 C 15.867188 -13.503906 15.90625 -12.617188 15.90625 -11.828125 C 15.90625 -11.421875 15.867188 -10.820312 15.796875 -10.03125 C 15.722656 -9.25 15.609375 -8.382812 15.453125 -7.4375 C 15.304688 -6.488281 15.101562 -5.515625 14.84375 -4.515625 C 14.59375 -3.523438 14.289062 -2.617188 13.9375 -1.796875 C 13.582031 -0.972656 13.164062 -0.304688 12.6875 0.203125 C 12.207031 0.722656 11.660156 0.984375 11.046875 0.984375 Z M 11.046875 0.984375 "/></g></g></g><g fill="#8e85e6" fill-opacity="1"><g transform="translate(190.03441, 30.495215)"><g><path d="M 6.15625 -1.6875 C 6.15625 -1.382812 6.082031 -1.109375 5.9375 -0.859375 C 5.800781 -0.617188 5.617188 -0.414062 5.390625 -0.25 C 5.171875 -0.0820312 4.925781 0.046875 4.65625 0.140625 C 4.382812 0.234375 4.109375 0.28125 3.828125 0.28125 C 3.484375 0.28125 3.101562 0.210938 2.6875 0.078125 C 2.28125 -0.046875 1.90625 -0.222656 1.5625 -0.453125 C 1.226562 -0.691406 0.941406 -0.96875 0.703125 -1.28125 C 0.472656 -1.601562 0.359375 -1.960938 0.359375 -2.359375 C 0.359375 -2.992188 0.625 -3.46875 1.15625 -3.78125 C 1.695312 -4.09375 2.25 -4.25 2.8125 -4.25 C 3.164062 -4.25 3.535156 -4.191406 3.921875 -4.078125 C 4.304688 -3.960938 4.671875 -3.789062 5.015625 -3.5625 C 5.359375 -3.34375 5.632812 -3.070312 5.84375 -2.75 C 6.050781 -2.4375 6.15625 -2.082031 6.15625 -1.6875 Z M 6.15625 -1.6875 "/></g></g></g><g fill="#8e85e6" fill-opacity="1"><g transform="translate(196.542999, 30.495215)"><g><path d="M 7.640625 -21.328125 C 7.640625 -20.054688 7.582031 -18.78125 7.46875 -17.5 C 7.363281 -16.226562 7.3125 -14.945312 7.3125 -13.65625 C 7.3125 -11.988281 7.363281 -10.320312 7.46875 -8.65625 C 7.582031 -6.988281 7.640625 -5.3125 7.640625 -3.625 C 7.640625 -3.195312 7.613281 -2.71875 7.5625 -2.1875 C 7.519531 -1.664062 7.410156 -1.179688 7.234375 -0.734375 C 7.054688 -0.296875 6.789062 0.0703125 6.4375 0.375 C 6.082031 0.6875 5.613281 0.84375 5.03125 0.84375 C 4.46875 0.84375 3.976562 0.566406 3.5625 0.015625 C 3.15625 -0.535156 2.816406 -1.238281 2.546875 -2.09375 C 2.273438 -2.945312 2.050781 -3.898438 1.875 -4.953125 C 1.707031 -6.015625 1.582031 -7.039062 1.5 -8.03125 C 1.414062 -9.03125 1.351562 -9.945312 1.3125 -10.78125 C 1.28125 -11.613281 1.265625 -12.226562 1.265625 -12.625 C 1.265625 -13.070312 1.28125 -13.71875 1.3125 -14.5625 C 1.351562 -15.40625 1.429688 -16.320312 1.546875 -17.3125 C 1.660156 -18.300781 1.816406 -19.300781 2.015625 -20.3125 C 2.222656 -21.332031 2.488281 -22.257812 2.8125 -23.09375 C 3.144531 -23.925781 3.539062 -24.609375 4 -25.140625 C 4.457031 -25.671875 5 -25.9375 5.625 -25.9375 C 6.144531 -25.9375 6.539062 -25.765625 6.8125 -25.421875 C 7.082031 -25.078125 7.273438 -24.664062 7.390625 -24.1875 C 7.503906 -23.707031 7.570312 -23.203125 7.59375 -22.671875 C 7.625 -22.148438 7.640625 -21.703125 7.640625 -21.328125 Z M 7.640625 -21.328125 "/></g></g></g><g fill="#8e85e6" fill-opacity="1"><g transform="translate(205.795751, 30.495215)"><g><path d="M 7.734375 1.015625 C 6.546875 1.015625 5.503906 0.695312 4.609375 0.0625 C 3.710938 -0.5625 2.957031 -1.363281 2.34375 -2.34375 C 1.738281 -3.332031 1.285156 -4.429688 0.984375 -5.640625 C 0.679688 -6.847656 0.53125 -8.039062 0.53125 -9.21875 C 0.53125 -10.457031 0.679688 -11.738281 0.984375 -13.0625 C 1.285156 -14.394531 1.753906 -15.601562 2.390625 -16.6875 C 3.023438 -17.78125 3.832031 -18.671875 4.8125 -19.359375 C 5.800781 -20.054688 6.976562 -20.40625 8.34375 -20.40625 C 9.65625 -20.40625 10.773438 -20.046875 11.703125 -19.328125 C 12.628906 -18.617188 13.375 -17.726562 13.9375 -16.65625 C 14.5 -15.59375 14.894531 -14.425781 15.125 -13.15625 C 15.363281 -11.894531 15.445312 -10.703125 15.375 -9.578125 C 15.300781 -8.328125 15.109375 -7.066406 14.796875 -5.796875 C 14.484375 -4.535156 14.019531 -3.398438 13.40625 -2.390625 C 12.789062 -1.378906 12.015625 -0.5625 11.078125 0.0625 C 10.140625 0.695312 9.023438 1.015625 7.734375 1.015625 Z M 8.09375 -14.890625 C 7.738281 -14.890625 7.425781 -14.703125 7.15625 -14.328125 C 6.882812 -13.953125 6.660156 -13.492188 6.484375 -12.953125 C 6.316406 -12.410156 6.1875 -11.835938 6.09375 -11.234375 C 6 -10.640625 5.953125 -10.117188 5.953125 -9.671875 C 5.953125 -9.109375 6.003906 -8.5 6.109375 -7.84375 C 6.210938 -7.1875 6.359375 -6.582031 6.546875 -6.03125 C 6.734375 -5.476562 6.960938 -5.019531 7.234375 -4.65625 C 7.503906 -4.289062 7.8125 -4.109375 8.15625 -4.109375 C 8.53125 -4.109375 8.851562 -4.285156 9.125 -4.640625 C 9.394531 -4.992188 9.613281 -5.441406 9.78125 -5.984375 C 9.945312 -6.523438 10.0625 -7.113281 10.125 -7.75 C 10.195312 -8.394531 10.234375 -9.003906 10.234375 -9.578125 C 10.234375 -10.085938 10.1875 -10.648438 10.09375 -11.265625 C 10 -11.890625 9.863281 -12.472656 9.6875 -13.015625 C 9.519531 -13.554688 9.300781 -14.003906 9.03125 -14.359375 C 8.757812 -14.710938 8.445312 -14.890625 8.09375 -14.890625 Z M 8.09375 -14.890625 "/></g></g></g><g fill="#8e85e6" fill-opacity="1"><g transform="translate(221.908909, 30.495215)"><g><path d="M 7.640625 -21.328125 C 7.640625 -20.054688 7.582031 -18.78125 7.46875 -17.5 C 7.363281 -16.226562 7.3125 -14.945312 7.3125 -13.65625 C 7.3125 -11.988281 7.363281 -10.320312 7.46875 -8.65625 C 7.582031 -6.988281 7.640625 -5.3125 7.640625 -3.625 C 7.640625 -3.195312 7.613281 -2.71875 7.5625 -2.1875 C 7.519531 -1.664062 7.410156 -1.179688 7.234375 -0.734375 C 7.054688 -0.296875 6.789062 0.0703125 6.4375 0.375 C 6.082031 0.6875 5.613281 0.84375 5.03125 0.84375 C 4.46875 0.84375 3.976562 0.566406 3.5625 0.015625 C 3.15625 -0.535156 2.816406 -1.238281 2.546875 -2.09375 C 2.273438 -2.945312 2.050781 -3.898438 1.875 -4.953125 C 1.707031 -6.015625 1.582031 -7.039062 1.5 -8.03125 C 1.414062 -9.03125 1.351562 -9.945312 1.3125 -10.78125 C 1.28125 -11.613281 1.265625 -12.226562 1.265625 -12.625 C 1.265625 -13.070312 1.28125 -13.71875 1.3125 -14.5625 C 1.351562 -15.40625 1.429688 -16.320312 1.546875 -17.3125 C 1.660156 -18.300781 1.816406 -19.300781 2.015625 -20.3125 C 2.222656 -21.332031 2.488281 -22.257812 2.8125 -23.09375 C 3.144531 -23.925781 3.539062 -24.609375 4 -25.140625 C 4.457031 -25.671875 5 -25.9375 5.625 -25.9375 C 6.144531 -25.9375 6.539062 -25.765625 6.8125 -25.421875 C 7.082031 -25.078125 7.273438 -24.664062 7.390625 -24.1875 C 7.503906 -23.707031 7.570312 -23.203125 7.59375 -22.671875 C 7.625 -22.148438 7.640625 -21.703125 7.640625 -21.328125 Z M 7.640625 -21.328125 "/></g></g></g><g clip-path="url(#a38936bafd)"><path fill="#8e85e6" d="M 6.589844 22.546875 L 6.753906 25.550781 C 6.765625 25.753906 6.839844 25.945312 6.96875 26.105469 C 7.875 27.199219 11.9375 31.015625 21.085938 31.015625 C 30.234375 31.015625 34.246094 27.246094 35.1875 26.125 C 35.328125 25.953125 35.410156 25.746094 35.421875 25.523438 L 35.585938 22.550781 C 36.675781 21.953125 37.800781 21.28125 37.800781 21.28125 C 39.566406 20.324219 41.542969 21.699219 41.542969 23.710938 C 41.550781 26.96875 39 30.316406 35.558594 32.425781 C 31.675781 34.808594 25.886719 35.792969 21.089844 35.792969 C 16.292969 35.792969 10.5 34.808594 6.617188 32.425781 C 3.175781 30.316406 0.625 26.96875 0.632812 23.710938 C 0.636719 21.699219 2.609375 20.324219 4.378906 21.28125 C 4.378906 21.28125 5.5 21.953125 6.589844 22.546875 Z M 6.589844 22.546875 " fill-opacity="1" fill-rule="nonzero"/></g><g clip-path="url(#82f71c8d95)"><path fill="#8e85e6" d="M 21.085938 1.25 C 28.570312 1.25 30.597656 1.425781 33.640625 1.773438 L 33.636719 1.773438 C 35.039062 1.9375 36.164062 2.976562 36.058594 4.386719 L 34.9375 19.617188 C 34.589844 19.71875 34.207031 19.847656 33.777344 19.992188 C 31.53125 20.742188 28.007812 21.921875 21.085938 21.921875 C 14.167969 21.921875 10.644531 20.742188 8.398438 19.992188 C 7.96875 19.847656 7.585938 19.71875 7.234375 19.617188 L 6.113281 4.386719 C 6.011719 2.976562 7.132812 1.910156 8.535156 1.773438 C 11.539062 1.484375 14.667969 1.25 21.085938 1.25 Z M 7.769531 26.914062 L 7.773438 26.96875 L 7.851562 26.988281 C 7.824219 26.964844 7.796875 26.9375 7.769531 26.914062 Z M 34.328125 26.984375 L 34.398438 26.96875 L 34.402344 26.921875 C 34.378906 26.941406 34.351562 26.964844 34.328125 26.984375 Z M 34.328125 26.984375 " fill-opacity="1" fill-rule="nonzero"/></g><g fill="#ffffff" fill-opacity="1"><g transform="translate(8.784108, 16.957254)"><g><path d="M 10.0625 -7.0625 C 10.0625 -6.8125 10.050781 -6.460938 10.03125 -6.015625 C 10.007812 -5.578125 9.96875 -5.09375 9.90625 -4.5625 C 9.84375 -4.03125 9.753906 -3.488281 9.640625 -2.9375 C 9.535156 -2.382812 9.394531 -1.878906 9.21875 -1.421875 C 9.050781 -0.972656 8.835938 -0.601562 8.578125 -0.3125 C 8.328125 -0.03125 8.03125 0.109375 7.6875 0.109375 C 7.351562 0.109375 7.046875 0.015625 6.765625 -0.171875 C 6.492188 -0.359375 6.25 -0.59375 6.03125 -0.875 C 5.8125 -1.15625 5.617188 -1.453125 5.453125 -1.765625 C 5.296875 -2.085938 5.160156 -2.378906 5.046875 -2.640625 C 4.816406 -3.203125 4.585938 -3.753906 4.359375 -4.296875 C 4.128906 -4.835938 3.910156 -5.390625 3.703125 -5.953125 L 3.703125 -5.5 C 3.703125 -5.019531 3.695312 -4.546875 3.6875 -4.078125 C 3.6875 -3.617188 3.648438 -3.160156 3.578125 -2.703125 C 3.554688 -2.515625 3.53125 -2.296875 3.5 -2.046875 C 3.476562 -1.796875 3.441406 -1.550781 3.390625 -1.3125 C 3.335938 -1.070312 3.257812 -0.847656 3.15625 -0.640625 C 3.050781 -0.429688 2.910156 -0.28125 2.734375 -0.1875 C 2.628906 -0.125 2.535156 -0.0859375 2.453125 -0.078125 C 2.367188 -0.0664062 2.28125 -0.0507812 2.1875 -0.03125 L 2.140625 -0.03125 C 1.890625 -0.03125 1.675781 -0.113281 1.5 -0.28125 C 1.320312 -0.457031 1.171875 -0.675781 1.046875 -0.9375 C 0.929688 -1.207031 0.835938 -1.507812 0.765625 -1.84375 C 0.691406 -2.1875 0.632812 -2.519531 0.59375 -2.84375 C 0.5625 -3.164062 0.539062 -3.460938 0.53125 -3.734375 C 0.519531 -4.003906 0.515625 -4.222656 0.515625 -4.390625 C 0.515625 -4.640625 0.523438 -5.007812 0.546875 -5.5 C 0.566406 -5.988281 0.613281 -6.53125 0.6875 -7.125 C 0.757812 -7.71875 0.851562 -8.328125 0.96875 -8.953125 C 1.082031 -9.578125 1.226562 -10.144531 1.40625 -10.65625 C 1.59375 -11.164062 1.816406 -11.582031 2.078125 -11.90625 C 2.347656 -12.226562 2.660156 -12.390625 3.015625 -12.390625 C 3.347656 -12.390625 3.648438 -12.253906 3.921875 -11.984375 C 4.191406 -11.722656 4.429688 -11.410156 4.640625 -11.046875 C 4.847656 -10.691406 5.019531 -10.316406 5.15625 -9.921875 C 5.300781 -9.523438 5.425781 -9.195312 5.53125 -8.9375 C 5.71875 -8.414062 5.894531 -7.898438 6.0625 -7.390625 C 6.238281 -6.878906 6.410156 -6.363281 6.578125 -5.84375 C 6.585938 -5.820312 6.609375 -5.757812 6.640625 -5.65625 C 6.671875 -5.5625 6.710938 -5.453125 6.765625 -5.328125 C 6.804688 -5.191406 6.859375 -5.046875 6.921875 -4.890625 C 6.921875 -5.023438 6.914062 -5.125 6.90625 -5.1875 C 6.90625 -5.25 6.90625 -5.300781 6.90625 -5.34375 C 6.90625 -5.394531 6.90625 -5.457031 6.90625 -5.53125 C 6.90625 -5.613281 6.90625 -5.738281 6.90625 -5.90625 C 6.894531 -6.269531 6.882812 -6.628906 6.875 -6.984375 C 6.875 -7.347656 6.875 -7.707031 6.875 -8.0625 C 6.875 -8.21875 6.875 -8.429688 6.875 -8.703125 C 6.882812 -8.972656 6.898438 -9.265625 6.921875 -9.578125 C 6.953125 -9.890625 6.992188 -10.203125 7.046875 -10.515625 C 7.109375 -10.835938 7.191406 -11.128906 7.296875 -11.390625 C 7.398438 -11.648438 7.53125 -11.859375 7.6875 -12.015625 C 7.84375 -12.179688 8.039062 -12.265625 8.28125 -12.265625 C 8.550781 -12.265625 8.785156 -12.160156 8.984375 -11.953125 C 9.179688 -11.742188 9.34375 -11.476562 9.46875 -11.15625 C 9.601562 -10.832031 9.707031 -10.46875 9.78125 -10.0625 C 9.863281 -9.664062 9.925781 -9.273438 9.96875 -8.890625 C 10.007812 -8.515625 10.035156 -8.160156 10.046875 -7.828125 C 10.054688 -7.503906 10.0625 -7.25 10.0625 -7.0625 Z M 10.0625 -7.0625 "/></g></g></g><g fill="#ffffff" fill-opacity="1"><g transform="translate(19.442095, 16.957254)"><g><path d="M 7.203125 -11.875 C 7.203125 -11.457031 7.054688 -11.078125 6.765625 -10.734375 C 6.484375 -10.398438 6.132812 -10.097656 5.71875 -9.828125 C 5.3125 -9.554688 4.882812 -9.320312 4.4375 -9.125 C 3.988281 -8.925781 3.597656 -8.765625 3.265625 -8.640625 C 3.265625 -8.410156 3.257812 -8.171875 3.25 -7.921875 C 3.238281 -7.679688 3.222656 -7.441406 3.203125 -7.203125 C 3.554688 -7.378906 3.953125 -7.539062 4.390625 -7.6875 C 4.828125 -7.84375 5.242188 -7.921875 5.640625 -7.921875 C 5.960938 -7.921875 6.222656 -7.851562 6.421875 -7.71875 C 6.628906 -7.59375 6.734375 -7.367188 6.734375 -7.046875 C 6.734375 -6.679688 6.601562 -6.351562 6.34375 -6.0625 C 6.082031 -5.78125 5.769531 -5.53125 5.40625 -5.3125 C 5.050781 -5.09375 4.675781 -4.90625 4.28125 -4.75 C 3.882812 -4.601562 3.546875 -4.484375 3.265625 -4.390625 C 3.265625 -4.023438 3.257812 -3.664062 3.25 -3.3125 C 3.238281 -2.957031 3.222656 -2.601562 3.203125 -2.25 C 3.191406 -2.070312 3.171875 -1.851562 3.140625 -1.59375 C 3.117188 -1.332031 3.066406 -1.078125 2.984375 -0.828125 C 2.898438 -0.578125 2.78125 -0.363281 2.625 -0.1875 C 2.476562 -0.0078125 2.285156 0.078125 2.046875 0.078125 C 1.804688 0.078125 1.601562 -0.03125 1.4375 -0.25 C 1.28125 -0.476562 1.144531 -0.765625 1.03125 -1.109375 C 0.914062 -1.460938 0.820312 -1.851562 0.75 -2.28125 C 0.675781 -2.71875 0.617188 -3.144531 0.578125 -3.5625 C 0.546875 -3.976562 0.523438 -4.363281 0.515625 -4.71875 C 0.515625 -5.070312 0.515625 -5.34375 0.515625 -5.53125 C 0.515625 -5.664062 0.515625 -5.875 0.515625 -6.15625 C 0.523438 -6.4375 0.53125 -6.742188 0.53125 -7.078125 C 0.539062 -7.421875 0.550781 -7.78125 0.5625 -8.15625 C 0.582031 -8.53125 0.601562 -8.882812 0.625 -9.21875 C 0.644531 -9.550781 0.671875 -9.847656 0.703125 -10.109375 C 0.742188 -10.367188 0.796875 -10.554688 0.859375 -10.671875 C 0.972656 -10.910156 1.257812 -11.148438 1.71875 -11.390625 C 2.175781 -11.628906 2.679688 -11.835938 3.234375 -12.015625 C 3.796875 -12.191406 4.34375 -12.335938 4.875 -12.453125 C 5.40625 -12.578125 5.816406 -12.640625 6.109375 -12.640625 C 6.234375 -12.640625 6.359375 -12.628906 6.484375 -12.609375 C 6.609375 -12.585938 6.722656 -12.550781 6.828125 -12.5 C 6.941406 -12.445312 7.03125 -12.367188 7.09375 -12.265625 C 7.164062 -12.171875 7.203125 -12.039062 7.203125 -11.875 Z M 7.203125 -11.875 "/></g></g></g><g fill="#ffffff" fill-opacity="1"><g transform="translate(26.234917, 16.957254)"><g><path d="M 7.609375 -11.234375 C 7.609375 -10.960938 7.5 -10.710938 7.28125 -10.484375 C 7.070312 -10.265625 6.816406 -10.066406 6.515625 -9.890625 C 6.210938 -9.722656 5.898438 -9.582031 5.578125 -9.46875 C 5.265625 -9.363281 5.003906 -9.289062 4.796875 -9.25 C 4.710938 -8.40625 4.644531 -7.5625 4.59375 -6.71875 C 4.550781 -5.882812 4.53125 -5.039062 4.53125 -4.1875 C 4.53125 -3.738281 4.539062 -3.296875 4.5625 -2.859375 C 4.582031 -2.421875 4.59375 -1.984375 4.59375 -1.546875 C 4.59375 -1.347656 4.570312 -1.128906 4.53125 -0.890625 C 4.488281 -0.660156 4.421875 -0.441406 4.328125 -0.234375 C 4.234375 -0.0234375 4.101562 0.148438 3.9375 0.296875 C 3.78125 0.441406 3.582031 0.515625 3.34375 0.515625 C 3.050781 0.515625 2.820312 0.429688 2.65625 0.265625 C 2.488281 0.109375 2.359375 -0.0820312 2.265625 -0.3125 C 2.171875 -0.539062 2.101562 -0.785156 2.0625 -1.046875 C 2.03125 -1.304688 2.015625 -1.539062 2.015625 -1.75 C 1.992188 -2.40625 1.976562 -3.0625 1.96875 -3.71875 C 1.957031 -4.382812 1.953125 -5.050781 1.953125 -5.71875 C 1.953125 -6.28125 1.953125 -6.828125 1.953125 -7.359375 C 1.960938 -7.898438 1.96875 -8.453125 1.96875 -9.015625 C 1.820312 -8.992188 1.664062 -8.976562 1.5 -8.96875 C 1.34375 -8.957031 1.179688 -8.953125 1.015625 -8.953125 C 0.890625 -8.953125 0.71875 -8.960938 0.5 -8.984375 C 0.289062 -9.015625 0.0859375 -9.066406 -0.109375 -9.140625 C -0.304688 -9.210938 -0.476562 -9.3125 -0.625 -9.4375 C -0.769531 -9.5625 -0.84375 -9.722656 -0.84375 -9.921875 C -0.84375 -10.242188 -0.710938 -10.53125 -0.453125 -10.78125 C -0.191406 -11.03125 0.132812 -11.242188 0.53125 -11.421875 C 0.9375 -11.597656 1.378906 -11.75 1.859375 -11.875 C 2.347656 -12.007812 2.832031 -12.109375 3.3125 -12.171875 C 3.789062 -12.242188 4.226562 -12.296875 4.625 -12.328125 C 5.03125 -12.367188 5.34375 -12.390625 5.5625 -12.390625 C 5.769531 -12.390625 5.988281 -12.378906 6.21875 -12.359375 C 6.457031 -12.347656 6.679688 -12.300781 6.890625 -12.21875 C 7.097656 -12.144531 7.269531 -12.03125 7.40625 -11.875 C 7.539062 -11.71875 7.609375 -11.503906 7.609375 -11.234375 Z M 7.609375 -11.234375 "/></g></g></g></svg>