<svg xmlns="http://www.w3.org/2000/svg" xmlns:xlink="http://www.w3.org/1999/xlink" width="308" zoomAndPan="magnify" viewBox="0 0 230.87999 55.5" height="74" preserveAspectRatio="xMidYMid meet" version="1.0"><defs><g/><clipPath id="feb1085ccf"><path d="M 220 4 L 229.789062 4 L 229.789062 40 L 220 40 Z M 220 4 " clip-rule="nonzero"/></clipPath></defs><g fill="#8e85e6" fill-opacity="1"><g transform="translate(0.346667, 38.428919)"><g><path d="M 28.125 -19.703125 C 28.125 -19.035156 28.09375 -18.082031 28.03125 -16.84375 C 27.96875 -15.601562 27.847656 -14.238281 27.671875 -12.75 C 27.503906 -11.257812 27.269531 -9.738281 26.96875 -8.1875 C 26.664062 -6.644531 26.269531 -5.242188 25.78125 -3.984375 C 25.289062 -2.734375 24.691406 -1.703125 23.984375 -0.890625 C 23.273438 -0.078125 22.429688 0.328125 21.453125 0.328125 C 20.535156 0.328125 19.691406 0.0625 18.921875 -0.46875 C 18.160156 -1.007812 17.472656 -1.671875 16.859375 -2.453125 C 16.242188 -3.234375 15.707031 -4.066406 15.25 -4.953125 C 14.789062 -5.847656 14.410156 -6.660156 14.109375 -7.390625 C 13.460938 -8.953125 12.816406 -10.488281 12.171875 -12 C 11.523438 -13.519531 10.914062 -15.0625 10.34375 -16.625 L 10.34375 -15.34375 C 10.34375 -14.03125 10.332031 -12.722656 10.3125 -11.421875 C 10.300781 -10.117188 10.203125 -8.820312 10.015625 -7.53125 C 9.953125 -7.007812 9.878906 -6.40625 9.796875 -5.71875 C 9.722656 -5.03125 9.609375 -4.347656 9.453125 -3.671875 C 9.304688 -3.003906 9.085938 -2.378906 8.796875 -1.796875 C 8.503906 -1.210938 8.113281 -0.78125 7.625 -0.5 C 7.351562 -0.351562 7.101562 -0.265625 6.875 -0.234375 C 6.644531 -0.203125 6.390625 -0.15625 6.109375 -0.09375 L 5.96875 -0.09375 C 5.269531 -0.09375 4.675781 -0.328125 4.1875 -0.796875 C 3.695312 -1.273438 3.28125 -1.890625 2.9375 -2.640625 C 2.601562 -3.390625 2.335938 -4.226562 2.140625 -5.15625 C 1.941406 -6.09375 1.785156 -7.015625 1.671875 -7.921875 C 1.566406 -8.828125 1.5 -9.660156 1.46875 -10.421875 C 1.4375 -11.191406 1.421875 -11.804688 1.421875 -12.265625 C 1.421875 -12.972656 1.453125 -14.003906 1.515625 -15.359375 C 1.578125 -16.722656 1.707031 -18.234375 1.90625 -19.890625 C 2.101562 -21.546875 2.363281 -23.242188 2.6875 -24.984375 C 3.007812 -26.734375 3.429688 -28.320312 3.953125 -29.75 C 4.472656 -31.175781 5.097656 -32.335938 5.828125 -33.234375 C 6.566406 -34.140625 7.425781 -34.59375 8.40625 -34.59375 C 9.351562 -34.59375 10.203125 -34.222656 10.953125 -33.484375 C 11.703125 -32.753906 12.367188 -31.882812 12.953125 -30.875 C 13.535156 -29.863281 14.023438 -28.804688 14.421875 -27.703125 C 14.828125 -26.597656 15.164062 -25.679688 15.4375 -24.953125 C 15.957031 -23.503906 16.460938 -22.066406 16.953125 -20.640625 C 17.441406 -19.222656 17.914062 -17.78125 18.375 -16.3125 C 18.40625 -16.25 18.46875 -16.078125 18.5625 -15.796875 C 18.65625 -15.523438 18.765625 -15.222656 18.890625 -14.890625 C 19.003906 -14.515625 19.15625 -14.097656 19.34375 -13.640625 C 19.34375 -14.046875 19.332031 -14.332031 19.3125 -14.5 C 19.300781 -14.664062 19.296875 -14.816406 19.296875 -14.953125 C 19.296875 -15.085938 19.296875 -15.265625 19.296875 -15.484375 C 19.296875 -15.703125 19.296875 -16.039062 19.296875 -16.5 C 19.265625 -17.507812 19.238281 -18.519531 19.21875 -19.53125 C 19.207031 -20.539062 19.203125 -21.535156 19.203125 -22.515625 C 19.203125 -22.941406 19.207031 -23.535156 19.21875 -24.296875 C 19.238281 -25.066406 19.285156 -25.890625 19.359375 -26.765625 C 19.441406 -27.640625 19.554688 -28.519531 19.703125 -29.40625 C 19.859375 -30.289062 20.082031 -31.09375 20.375 -31.8125 C 20.664062 -32.53125 21.03125 -33.117188 21.46875 -33.578125 C 21.914062 -34.046875 22.460938 -34.28125 23.109375 -34.28125 C 23.878906 -34.28125 24.535156 -33.988281 25.078125 -33.40625 C 25.628906 -32.820312 26.085938 -32.078125 26.453125 -31.171875 C 26.828125 -30.265625 27.117188 -29.253906 27.328125 -28.140625 C 27.546875 -27.023438 27.71875 -25.929688 27.84375 -24.859375 C 27.96875 -23.785156 28.046875 -22.785156 28.078125 -21.859375 C 28.109375 -20.941406 28.125 -20.222656 28.125 -19.703125 Z M 28.125 -19.703125 "/></g></g></g><g fill="#8e85e6" fill-opacity="1"><g transform="translate(30.115052, 38.428919)"><g><path d="M 20.125 -33.171875 C 20.125 -32.003906 19.722656 -30.945312 18.921875 -30 C 18.128906 -29.050781 17.15625 -28.203125 16 -27.453125 C 14.851562 -26.703125 13.648438 -26.050781 12.390625 -25.5 C 11.140625 -24.945312 10.054688 -24.488281 9.140625 -24.125 C 9.140625 -23.476562 9.125 -22.816406 9.09375 -22.140625 C 9.0625 -21.472656 9.015625 -20.800781 8.953125 -20.125 C 9.929688 -20.613281 11.035156 -21.070312 12.265625 -21.5 C 13.492188 -21.925781 14.660156 -22.140625 15.765625 -22.140625 C 16.648438 -22.140625 17.375 -21.957031 17.9375 -21.59375 C 18.507812 -21.226562 18.796875 -20.585938 18.796875 -19.671875 C 18.796875 -18.648438 18.429688 -17.742188 17.703125 -16.953125 C 16.984375 -16.160156 16.117188 -15.457031 15.109375 -14.84375 C 14.097656 -14.226562 13.039062 -13.707031 11.9375 -13.28125 C 10.84375 -12.851562 9.910156 -12.515625 9.140625 -12.265625 C 9.140625 -11.253906 9.125 -10.25 9.09375 -9.25 C 9.0625 -8.257812 9.015625 -7.273438 8.953125 -6.296875 C 8.921875 -5.804688 8.867188 -5.191406 8.796875 -4.453125 C 8.722656 -3.722656 8.570312 -3.007812 8.34375 -2.3125 C 8.113281 -1.625 7.78125 -1.023438 7.34375 -0.515625 C 6.914062 -0.015625 6.367188 0.234375 5.703125 0.234375 C 5.054688 0.234375 4.503906 -0.078125 4.046875 -0.703125 C 3.585938 -1.335938 3.195312 -2.144531 2.875 -3.125 C 2.550781 -4.101562 2.289062 -5.195312 2.09375 -6.40625 C 1.894531 -7.613281 1.738281 -8.800781 1.625 -9.96875 C 1.519531 -11.132812 1.457031 -12.207031 1.4375 -13.1875 C 1.425781 -14.164062 1.421875 -14.914062 1.421875 -15.4375 C 1.421875 -15.832031 1.425781 -16.421875 1.4375 -17.203125 C 1.457031 -17.984375 1.472656 -18.847656 1.484375 -19.796875 C 1.503906 -20.742188 1.535156 -21.738281 1.578125 -22.78125 C 1.628906 -23.820312 1.6875 -24.8125 1.75 -25.75 C 1.8125 -26.6875 1.894531 -27.515625 2 -28.234375 C 2.101562 -28.953125 2.234375 -29.476562 2.390625 -29.8125 C 2.722656 -30.488281 3.523438 -31.15625 4.796875 -31.8125 C 6.066406 -32.46875 7.484375 -33.050781 9.046875 -33.5625 C 10.609375 -34.070312 12.128906 -34.484375 13.609375 -34.796875 C 15.097656 -35.117188 16.242188 -35.28125 17.046875 -35.28125 C 17.410156 -35.28125 17.769531 -35.253906 18.125 -35.203125 C 18.476562 -35.160156 18.804688 -35.0625 19.109375 -34.90625 C 19.421875 -34.757812 19.664062 -34.546875 19.84375 -34.265625 C 20.03125 -33.992188 20.125 -33.628906 20.125 -33.171875 Z M 20.125 -33.171875 "/></g></g></g><g fill="#8e85e6" fill-opacity="1"><g transform="translate(49.087803, 38.428919)"><g><path d="M 21.265625 -31.375 C 21.265625 -30.613281 20.96875 -29.914062 20.375 -29.28125 C 19.78125 -28.65625 19.0625 -28.101562 18.21875 -27.625 C 17.375 -27.15625 16.503906 -26.765625 15.609375 -26.453125 C 14.722656 -26.148438 13.992188 -25.941406 13.421875 -25.828125 C 13.171875 -23.460938 12.976562 -21.109375 12.84375 -18.765625 C 12.707031 -16.421875 12.640625 -14.070312 12.640625 -11.71875 C 12.640625 -10.457031 12.664062 -9.210938 12.71875 -7.984375 C 12.78125 -6.765625 12.8125 -5.539062 12.8125 -4.3125 C 12.8125 -3.757812 12.757812 -3.15625 12.65625 -2.5 C 12.550781 -1.84375 12.367188 -1.222656 12.109375 -0.640625 C 11.847656 -0.0546875 11.488281 0.429688 11.03125 0.828125 C 10.570312 1.222656 10.003906 1.421875 9.328125 1.421875 C 8.523438 1.421875 7.882812 1.195312 7.40625 0.75 C 6.9375 0.3125 6.570312 -0.226562 6.3125 -0.875 C 6.050781 -1.519531 5.875 -2.203125 5.78125 -2.921875 C 5.695312 -3.640625 5.65625 -4.289062 5.65625 -4.875 C 5.59375 -6.707031 5.546875 -8.550781 5.515625 -10.40625 C 5.484375 -12.257812 5.46875 -14.117188 5.46875 -15.984375 C 5.46875 -17.546875 5.472656 -19.078125 5.484375 -20.578125 C 5.503906 -22.078125 5.515625 -23.609375 5.515625 -25.171875 C 5.085938 -25.109375 4.648438 -25.0625 4.203125 -25.03125 C 3.753906 -25.007812 3.300781 -25 2.84375 -25 C 2.476562 -25 1.992188 -25.035156 1.390625 -25.109375 C 0.796875 -25.179688 0.222656 -25.316406 -0.328125 -25.515625 C -0.878906 -25.722656 -1.351562 -26 -1.75 -26.34375 C -2.144531 -26.695312 -2.34375 -27.148438 -2.34375 -27.703125 C -2.34375 -28.617188 -1.984375 -29.421875 -1.265625 -30.109375 C -0.546875 -30.804688 0.367188 -31.40625 1.484375 -31.90625 C 2.609375 -32.414062 3.851562 -32.84375 5.21875 -33.1875 C 6.582031 -33.539062 7.925781 -33.816406 9.25 -34.015625 C 10.582031 -34.222656 11.804688 -34.367188 12.921875 -34.453125 C 14.046875 -34.546875 14.914062 -34.59375 15.53125 -34.59375 C 16.113281 -34.59375 16.734375 -34.566406 17.390625 -34.515625 C 18.046875 -34.472656 18.664062 -34.34375 19.25 -34.125 C 19.832031 -33.914062 20.3125 -33.597656 20.6875 -33.171875 C 21.070312 -32.742188 21.265625 -32.144531 21.265625 -31.375 Z M 21.265625 -31.375 "/></g></g></g><g fill="#8e85e6" fill-opacity="1"><g transform="translate(66.590512, 38.428919)"><g><path d="M 21.1875 -30.234375 C 21.1875 -27.992188 21.097656 -25.769531 20.921875 -23.5625 C 20.753906 -21.363281 20.671875 -19.144531 20.671875 -16.90625 C 20.671875 -15.101562 20.722656 -13.3125 20.828125 -11.53125 C 20.941406 -9.757812 21 -7.96875 21 -6.15625 C 21 -5.664062 20.984375 -5.078125 20.953125 -4.390625 C 20.921875 -3.703125 20.820312 -3.035156 20.65625 -2.390625 C 20.488281 -1.742188 20.210938 -1.191406 19.828125 -0.734375 C 19.441406 -0.273438 18.894531 -0.046875 18.1875 -0.046875 C 17.269531 -0.046875 16.515625 -0.390625 15.921875 -1.078125 C 15.328125 -1.765625 14.953125 -2.539062 14.796875 -3.40625 C 14.210938 -2.300781 13.367188 -1.363281 12.265625 -0.59375 C 11.160156 0.164062 9.96875 0.546875 8.6875 0.546875 C 7.300781 0.546875 6.109375 0.0703125 5.109375 -0.875 C 4.117188 -1.820312 3.296875 -2.96875 2.640625 -4.3125 C 1.984375 -5.664062 1.492188 -7.078125 1.171875 -8.546875 C 0.847656 -10.015625 0.6875 -11.285156 0.6875 -12.359375 C 0.6875 -13.117188 0.734375 -13.988281 0.828125 -14.96875 C 0.921875 -15.957031 1.082031 -16.957031 1.3125 -17.96875 C 1.539062 -18.976562 1.835938 -19.960938 2.203125 -20.921875 C 2.566406 -21.890625 3.03125 -22.753906 3.59375 -23.515625 C 4.164062 -24.285156 4.84375 -24.898438 5.625 -25.359375 C 6.40625 -25.816406 7.300781 -26.046875 8.3125 -26.046875 C 9.414062 -26.046875 10.472656 -25.722656 11.484375 -25.078125 C 12.492188 -24.441406 13.257812 -23.648438 13.78125 -22.703125 L 14.203125 -30 C 14.234375 -30.582031 14.273438 -31.265625 14.328125 -32.046875 C 14.390625 -32.828125 14.519531 -33.566406 14.71875 -34.265625 C 14.925781 -34.972656 15.242188 -35.570312 15.671875 -36.0625 C 16.097656 -36.550781 16.722656 -36.796875 17.546875 -36.796875 C 18.441406 -36.796875 19.132812 -36.582031 19.625 -36.15625 C 20.113281 -35.726562 20.472656 -35.1875 20.703125 -34.53125 C 20.929688 -33.875 21.066406 -33.160156 21.109375 -32.390625 C 21.160156 -31.617188 21.1875 -30.898438 21.1875 -30.234375 Z M 13.6875 -9.828125 C 13.6875 -10.535156 13.671875 -11.222656 13.640625 -11.890625 C 13.609375 -12.566406 13.609375 -13.257812 13.640625 -13.96875 C 13.460938 -14.363281 13.25 -14.796875 13 -15.265625 C 12.757812 -15.742188 12.460938 -16.191406 12.109375 -16.609375 C 11.753906 -17.023438 11.363281 -17.367188 10.9375 -17.640625 C 10.507812 -17.921875 10.050781 -18.0625 9.5625 -18.0625 C 9.007812 -18.0625 8.5625 -17.890625 8.21875 -17.546875 C 7.882812 -17.210938 7.640625 -16.804688 7.484375 -16.328125 C 7.335938 -15.859375 7.238281 -15.347656 7.1875 -14.796875 C 7.144531 -14.242188 7.125 -13.769531 7.125 -13.375 C 7.125 -13 7.15625 -12.453125 7.21875 -11.734375 C 7.28125 -11.015625 7.394531 -10.285156 7.5625 -9.546875 C 7.726562 -8.816406 7.960938 -8.175781 8.265625 -7.625 C 8.578125 -7.070312 8.992188 -6.796875 9.515625 -6.796875 C 9.910156 -6.796875 10.304688 -6.878906 10.703125 -7.046875 C 11.097656 -7.222656 11.472656 -7.441406 11.828125 -7.703125 C 12.179688 -7.960938 12.519531 -8.25 12.84375 -8.5625 C 13.164062 -8.882812 13.445312 -9.1875 13.6875 -9.46875 Z M 13.6875 -9.828125 "/></g></g></g><g fill="#8e85e6" fill-opacity="1"><g transform="translate(89.422128, 38.428919)"><g><path d="M 20.625 -8.171875 C 20.625 -7.128906 20.296875 -6.109375 19.640625 -5.109375 C 18.984375 -4.117188 18.15625 -3.234375 17.15625 -2.453125 C 16.164062 -1.671875 15.101562 -1.039062 13.96875 -0.5625 C 12.832031 -0.09375 11.789062 0.140625 10.84375 0.140625 C 9.21875 0.140625 7.769531 -0.265625 6.5 -1.078125 C 5.226562 -1.890625 4.160156 -2.921875 3.296875 -4.171875 C 2.441406 -5.429688 1.789062 -6.816406 1.34375 -8.328125 C 0.90625 -9.847656 0.6875 -11.328125 0.6875 -12.765625 C 0.6875 -14.296875 0.898438 -15.9375 1.328125 -17.6875 C 1.753906 -19.4375 2.40625 -21.046875 3.28125 -22.515625 C 4.15625 -23.984375 5.257812 -25.207031 6.59375 -26.1875 C 7.925781 -27.164062 9.507812 -27.65625 11.34375 -27.65625 C 12.382812 -27.65625 13.378906 -27.476562 14.328125 -27.125 C 15.285156 -26.78125 16.113281 -26.285156 16.8125 -25.640625 C 17.519531 -24.992188 18.085938 -24.222656 18.515625 -23.328125 C 18.941406 -22.441406 19.15625 -21.453125 19.15625 -20.359375 C 19.15625 -18.910156 18.847656 -17.554688 18.234375 -16.296875 C 17.628906 -15.046875 16.816406 -13.960938 15.796875 -13.046875 C 14.785156 -12.128906 13.625 -11.382812 12.3125 -10.8125 C 11 -10.25 9.648438 -9.9375 8.265625 -9.875 C 8.390625 -8.988281 8.75 -8.34375 9.34375 -7.9375 C 9.945312 -7.539062 10.660156 -7.34375 11.484375 -7.34375 C 12.097656 -7.34375 12.695312 -7.492188 13.28125 -7.796875 C 13.863281 -8.109375 14.429688 -8.457031 14.984375 -8.84375 C 15.535156 -9.226562 16.078125 -9.570312 16.609375 -9.875 C 17.140625 -10.1875 17.679688 -10.34375 18.234375 -10.34375 C 18.847656 -10.34375 19.398438 -10.140625 19.890625 -9.734375 C 20.378906 -9.335938 20.625 -8.816406 20.625 -8.171875 Z M 13.1875 -19.4375 C 13.1875 -19.832031 13.078125 -20.242188 12.859375 -20.671875 C 12.648438 -21.097656 12.316406 -21.3125 11.859375 -21.3125 C 11.179688 -21.3125 10.613281 -21.132812 10.15625 -20.78125 C 9.695312 -20.4375 9.3125 -19.992188 9 -19.453125 C 8.695312 -18.921875 8.460938 -18.347656 8.296875 -17.734375 C 8.128906 -17.117188 8.03125 -16.550781 8 -16.03125 C 8.425781 -16.125 8.9375 -16.242188 9.53125 -16.390625 C 10.125 -16.546875 10.6875 -16.753906 11.21875 -17.015625 C 11.757812 -17.273438 12.222656 -17.601562 12.609375 -18 C 12.992188 -18.40625 13.1875 -18.882812 13.1875 -19.4375 Z M 13.1875 -19.4375 "/></g></g></g><g fill="#8e85e6" fill-opacity="1"><g transform="translate(110.508068, 38.428919)"><g><path d="M 22.1875 -15.671875 C 22.1875 -14.109375 22.160156 -12.546875 22.109375 -10.984375 C 22.066406 -9.421875 21.988281 -7.859375 21.875 -6.296875 C 21.78125 -4.941406 21.65625 -3.5 21.5 -1.96875 C 21.34375 -0.4375 21.097656 1.082031 20.765625 2.59375 C 20.429688 4.113281 19.988281 5.566406 19.4375 6.953125 C 18.882812 8.347656 18.15625 9.582031 17.25 10.65625 C 16.34375 11.726562 15.242188 12.585938 13.953125 13.234375 C 12.671875 13.878906 11.144531 14.203125 9.375 14.203125 C 8.539062 14.203125 7.609375 14.070312 6.578125 13.8125 C 5.554688 13.550781 4.59375 13.175781 3.6875 12.6875 C 2.789062 12.195312 2.023438 11.585938 1.390625 10.859375 C 0.765625 10.140625 0.453125 9.304688 0.453125 8.359375 C 0.453125 7.660156 0.703125 7.007812 1.203125 6.40625 C 1.710938 5.8125 2.367188 5.515625 3.171875 5.515625 C 3.660156 5.515625 4.125 5.597656 4.5625 5.765625 C 5.007812 5.929688 5.453125 6.117188 5.890625 6.328125 C 6.335938 6.546875 6.769531 6.738281 7.1875 6.90625 C 7.601562 7.082031 8.023438 7.171875 8.453125 7.171875 C 9.585938 7.171875 10.535156 6.882812 11.296875 6.3125 C 12.066406 5.75 12.679688 5.03125 13.140625 4.15625 C 13.597656 3.28125 13.941406 2.328125 14.171875 1.296875 C 14.398438 0.273438 14.5625 -0.691406 14.65625 -1.609375 C 14.039062 -0.898438 13.328125 -0.414062 12.515625 -0.15625 C 11.703125 0.101562 10.851562 0.234375 9.96875 0.234375 C 8.34375 0.234375 6.960938 -0.046875 5.828125 -0.609375 C 4.703125 -1.179688 3.785156 -1.960938 3.078125 -2.953125 C 2.367188 -3.953125 1.847656 -5.109375 1.515625 -6.421875 C 1.179688 -7.742188 1.015625 -9.171875 1.015625 -10.703125 C 1.015625 -11.648438 1.113281 -12.722656 1.3125 -13.921875 C 1.507812 -15.117188 1.804688 -16.328125 2.203125 -17.546875 C 2.597656 -18.773438 3.09375 -19.96875 3.6875 -21.125 C 4.289062 -22.289062 4.988281 -23.316406 5.78125 -24.203125 C 6.582031 -25.097656 7.476562 -25.820312 8.46875 -26.375 C 9.46875 -26.925781 10.566406 -27.203125 11.765625 -27.203125 C 12.921875 -27.203125 13.953125 -26.863281 14.859375 -26.1875 C 15.765625 -25.507812 16.296875 -24.5625 16.453125 -23.34375 C 16.785156 -23.976562 17.226562 -24.609375 17.78125 -25.234375 C 18.332031 -25.867188 19.003906 -26.1875 19.796875 -26.1875 C 20.222656 -26.1875 20.582031 -25.972656 20.875 -25.546875 C 21.164062 -25.117188 21.394531 -24.554688 21.5625 -23.859375 C 21.738281 -23.171875 21.867188 -22.421875 21.953125 -21.609375 C 22.046875 -20.804688 22.109375 -20.015625 22.140625 -19.234375 C 22.171875 -18.453125 22.1875 -17.738281 22.1875 -17.09375 C 22.1875 -16.445312 22.1875 -15.972656 22.1875 -15.671875 Z M 15.203125 -12.6875 C 15.203125 -13.144531 15.132812 -13.738281 15 -14.46875 C 14.863281 -15.207031 14.664062 -15.910156 14.40625 -16.578125 C 14.144531 -17.253906 13.8125 -17.835938 13.40625 -18.328125 C 13.007812 -18.816406 12.535156 -19.0625 11.984375 -19.0625 C 11.285156 -19.0625 10.664062 -18.816406 10.125 -18.328125 C 9.59375 -17.835938 9.140625 -17.25 8.765625 -16.5625 C 8.398438 -15.875 8.117188 -15.140625 7.921875 -14.359375 C 7.722656 -13.578125 7.625 -12.910156 7.625 -12.359375 C 7.625 -11.960938 7.65625 -11.425781 7.71875 -10.75 C 7.78125 -10.070312 7.910156 -9.410156 8.109375 -8.765625 C 8.304688 -8.128906 8.570312 -7.582031 8.90625 -7.125 C 9.25 -6.664062 9.695312 -6.4375 10.25 -6.4375 C 11.070312 -6.4375 11.789062 -6.632812 12.40625 -7.03125 C 13.019531 -7.425781 13.53125 -7.929688 13.9375 -8.546875 C 14.351562 -9.160156 14.664062 -9.832031 14.875 -10.5625 C 15.09375 -11.300781 15.203125 -12.007812 15.203125 -12.6875 Z M 15.203125 -12.6875 "/></g></g></g><g fill="#8e85e6" fill-opacity="1"><g transform="translate(134.580034, 38.428919)"><g><path d="M 20.625 -8.171875 C 20.625 -7.128906 20.296875 -6.109375 19.640625 -5.109375 C 18.984375 -4.117188 18.15625 -3.234375 17.15625 -2.453125 C 16.164062 -1.671875 15.101562 -1.039062 13.96875 -0.5625 C 12.832031 -0.09375 11.789062 0.140625 10.84375 0.140625 C 9.21875 0.140625 7.769531 -0.265625 6.5 -1.078125 C 5.226562 -1.890625 4.160156 -2.921875 3.296875 -4.171875 C 2.441406 -5.429688 1.789062 -6.816406 1.34375 -8.328125 C 0.90625 -9.847656 0.6875 -11.328125 0.6875 -12.765625 C 0.6875 -14.296875 0.898438 -15.9375 1.328125 -17.6875 C 1.753906 -19.4375 2.40625 -21.046875 3.28125 -22.515625 C 4.15625 -23.984375 5.257812 -25.207031 6.59375 -26.1875 C 7.925781 -27.164062 9.507812 -27.65625 11.34375 -27.65625 C 12.382812 -27.65625 13.378906 -27.476562 14.328125 -27.125 C 15.285156 -26.78125 16.113281 -26.285156 16.8125 -25.640625 C 17.519531 -24.992188 18.085938 -24.222656 18.515625 -23.328125 C 18.941406 -22.441406 19.15625 -21.453125 19.15625 -20.359375 C 19.15625 -18.910156 18.847656 -17.554688 18.234375 -16.296875 C 17.628906 -15.046875 16.816406 -13.960938 15.796875 -13.046875 C 14.785156 -12.128906 13.625 -11.382812 12.3125 -10.8125 C 11 -10.25 9.648438 -9.9375 8.265625 -9.875 C 8.390625 -8.988281 8.75 -8.34375 9.34375 -7.9375 C 9.945312 -7.539062 10.660156 -7.34375 11.484375 -7.34375 C 12.097656 -7.34375 12.695312 -7.492188 13.28125 -7.796875 C 13.863281 -8.109375 14.429688 -8.457031 14.984375 -8.84375 C 15.535156 -9.226562 16.078125 -9.570312 16.609375 -9.875 C 17.140625 -10.1875 17.679688 -10.34375 18.234375 -10.34375 C 18.847656 -10.34375 19.398438 -10.140625 19.890625 -9.734375 C 20.378906 -9.335938 20.625 -8.816406 20.625 -8.171875 Z M 13.1875 -19.4375 C 13.1875 -19.832031 13.078125 -20.242188 12.859375 -20.671875 C 12.648438 -21.097656 12.316406 -21.3125 11.859375 -21.3125 C 11.179688 -21.3125 10.613281 -21.132812 10.15625 -20.78125 C 9.695312 -20.4375 9.3125 -19.992188 9 -19.453125 C 8.695312 -18.921875 8.460938 -18.347656 8.296875 -17.734375 C 8.128906 -17.117188 8.03125 -16.550781 8 -16.03125 C 8.425781 -16.125 8.9375 -16.242188 9.53125 -16.390625 C 10.125 -16.546875 10.6875 -16.753906 11.21875 -17.015625 C 11.757812 -17.273438 12.222656 -17.601562 12.609375 -18 C 12.992188 -18.40625 13.1875 -18.882812 13.1875 -19.4375 Z M 13.1875 -19.4375 "/></g></g></g><g fill="#8e85e6" fill-opacity="1"><g transform="translate(155.665973, 38.428919)"><g><path d="M 14.421875 1.28125 C 13.898438 1.28125 13.484375 1.039062 13.171875 0.5625 C 12.867188 0.09375 12.640625 -0.441406 12.484375 -1.046875 C 12.335938 -1.660156 12.238281 -2.28125 12.1875 -2.90625 C 12.144531 -3.539062 12.125 -4.023438 12.125 -4.359375 C 12.125 -5.285156 12.175781 -6.207031 12.28125 -7.125 C 12.394531 -8.039062 12.519531 -8.957031 12.65625 -9.875 C 12.789062 -10.789062 12.910156 -11.707031 13.015625 -12.625 C 13.128906 -13.550781 13.1875 -14.472656 13.1875 -15.390625 C 13.1875 -15.753906 13.171875 -16.148438 13.140625 -16.578125 C 13.109375 -17.015625 13.035156 -17.421875 12.921875 -17.796875 C 12.816406 -18.179688 12.640625 -18.492188 12.390625 -18.734375 C 12.148438 -18.984375 11.832031 -19.109375 11.4375 -19.109375 C 11.164062 -19.109375 10.859375 -18.882812 10.515625 -18.4375 C 10.179688 -18 9.867188 -17.492188 9.578125 -16.921875 C 9.285156 -16.359375 9.039062 -15.789062 8.84375 -15.21875 C 8.644531 -14.65625 8.546875 -14.238281 8.546875 -13.96875 C 8.546875 -13.289062 8.550781 -12.609375 8.5625 -11.921875 C 8.582031 -11.234375 8.59375 -10.535156 8.59375 -9.828125 L 8.59375 -7.171875 C 8.5625 -6.617188 8.515625 -6.050781 8.453125 -5.46875 C 8.390625 -4.882812 8.296875 -4.316406 8.171875 -3.765625 C 8.085938 -3.210938 7.953125 -2.679688 7.765625 -2.171875 C 7.578125 -1.671875 7.335938 -1.226562 7.046875 -0.84375 C 6.753906 -0.46875 6.410156 -0.160156 6.015625 0.078125 C 5.617188 0.328125 5.144531 0.453125 4.59375 0.453125 C 3.976562 0.453125 3.472656 0.253906 3.078125 -0.140625 C 2.679688 -0.535156 2.359375 -1.046875 2.109375 -1.671875 C 1.867188 -2.304688 1.691406 -3.015625 1.578125 -3.796875 C 1.472656 -4.578125 1.394531 -5.34375 1.34375 -6.09375 C 1.300781 -6.84375 1.285156 -7.53125 1.296875 -8.15625 C 1.316406 -8.78125 1.328125 -9.273438 1.328125 -9.640625 L 1.328125 -11.8125 C 1.328125 -12.96875 1.300781 -14.113281 1.25 -15.25 C 1.207031 -16.382812 1.1875 -17.519531 1.1875 -18.65625 C 1.1875 -19.269531 1.191406 -20.050781 1.203125 -21 C 1.222656 -21.945312 1.34375 -22.867188 1.5625 -23.765625 C 1.78125 -24.671875 2.132812 -25.445312 2.625 -26.09375 C 3.113281 -26.738281 3.832031 -27.0625 4.78125 -27.0625 C 5.207031 -27.0625 5.585938 -26.921875 5.921875 -26.640625 C 6.265625 -26.367188 6.566406 -26.035156 6.828125 -25.640625 C 7.085938 -25.242188 7.300781 -24.8125 7.46875 -24.34375 C 7.632812 -23.882812 7.765625 -23.488281 7.859375 -23.15625 C 8.160156 -23.582031 8.519531 -23.992188 8.9375 -24.390625 C 9.351562 -24.796875 9.820312 -25.148438 10.34375 -25.453125 C 10.863281 -25.753906 11.441406 -26 12.078125 -26.1875 C 12.722656 -26.375 13.457031 -26.46875 14.28125 -26.46875 C 15.84375 -26.46875 17.0625 -26.09375 17.9375 -25.34375 C 18.8125 -24.59375 19.453125 -23.65625 19.859375 -22.53125 C 20.273438 -21.414062 20.53125 -20.210938 20.625 -18.921875 C 20.71875 -17.640625 20.765625 -16.476562 20.765625 -15.4375 C 20.765625 -14.914062 20.71875 -14.140625 20.625 -13.109375 C 20.53125 -12.085938 20.382812 -10.957031 20.1875 -9.71875 C 19.988281 -8.476562 19.722656 -7.207031 19.390625 -5.90625 C 19.054688 -4.601562 18.65625 -3.414062 18.1875 -2.34375 C 17.726562 -1.269531 17.1875 -0.398438 16.5625 0.265625 C 15.9375 0.941406 15.222656 1.28125 14.421875 1.28125 Z M 14.421875 1.28125 "/></g></g></g><g fill="#8e85e6" fill-opacity="1"><g transform="translate(177.624751, 38.428919)"><g><path d="M 8.046875 -2.203125 C 8.046875 -1.804688 7.953125 -1.445312 7.765625 -1.125 C 7.578125 -0.800781 7.335938 -0.53125 7.046875 -0.3125 C 6.753906 -0.101562 6.429688 0.0625 6.078125 0.1875 C 5.734375 0.3125 5.378906 0.375 5.015625 0.375 C 4.546875 0.375 4.039062 0.285156 3.5 0.109375 C 2.96875 -0.0546875 2.476562 -0.289062 2.03125 -0.59375 C 1.59375 -0.90625 1.21875 -1.265625 0.90625 -1.671875 C 0.601562 -2.085938 0.453125 -2.554688 0.453125 -3.078125 C 0.453125 -3.898438 0.804688 -4.519531 1.515625 -4.9375 C 2.222656 -5.351562 2.941406 -5.5625 3.671875 -5.5625 C 4.128906 -5.5625 4.609375 -5.484375 5.109375 -5.328125 C 5.617188 -5.171875 6.097656 -4.945312 6.546875 -4.65625 C 6.992188 -4.375 7.351562 -4.023438 7.625 -3.609375 C 7.90625 -3.191406 8.046875 -2.722656 8.046875 -2.203125 Z M 8.046875 -2.203125 "/></g></g></g><g fill="#8e85e6" fill-opacity="1"><g transform="translate(186.123441, 38.428919)"><g><path d="M 9.96875 -27.84375 C 9.96875 -26.1875 9.898438 -24.523438 9.765625 -22.859375 C 9.628906 -21.191406 9.5625 -19.515625 9.5625 -17.828125 C 9.5625 -15.648438 9.628906 -13.472656 9.765625 -11.296875 C 9.898438 -9.128906 9.96875 -6.941406 9.96875 -4.734375 C 9.96875 -4.179688 9.9375 -3.5625 9.875 -2.875 C 9.8125 -2.1875 9.664062 -1.550781 9.4375 -0.96875 C 9.207031 -0.382812 8.863281 0.101562 8.40625 0.5 C 7.945312 0.90625 7.332031 1.109375 6.5625 1.109375 C 5.832031 1.109375 5.195312 0.742188 4.65625 0.015625 C 4.125 -0.703125 3.679688 -1.617188 3.328125 -2.734375 C 2.972656 -3.847656 2.679688 -5.09375 2.453125 -6.46875 C 2.222656 -7.851562 2.054688 -9.195312 1.953125 -10.5 C 1.847656 -11.800781 1.769531 -12.992188 1.71875 -14.078125 C 1.675781 -15.171875 1.65625 -15.976562 1.65625 -16.5 C 1.65625 -17.070312 1.675781 -17.910156 1.71875 -19.015625 C 1.769531 -20.117188 1.867188 -21.3125 2.015625 -22.59375 C 2.171875 -23.882812 2.378906 -25.195312 2.640625 -26.53125 C 2.898438 -27.863281 3.242188 -29.070312 3.671875 -30.15625 C 4.097656 -31.25 4.609375 -32.140625 5.203125 -32.828125 C 5.804688 -33.515625 6.519531 -33.859375 7.34375 -33.859375 C 8.019531 -33.859375 8.535156 -33.632812 8.890625 -33.1875 C 9.242188 -32.75 9.492188 -32.210938 9.640625 -31.578125 C 9.796875 -30.953125 9.890625 -30.296875 9.921875 -29.609375 C 9.953125 -28.921875 9.96875 -28.332031 9.96875 -27.84375 Z M 9.96875 -27.84375 "/></g></g></g><g fill="#8e85e6" fill-opacity="1"><g transform="translate(198.205363, 38.428919)"><g><path d="M 10.109375 1.328125 C 8.546875 1.328125 7.179688 0.910156 6.015625 0.078125 C 4.847656 -0.742188 3.867188 -1.796875 3.078125 -3.078125 C 2.285156 -4.367188 1.6875 -5.800781 1.28125 -7.375 C 0.882812 -8.945312 0.6875 -10.5 0.6875 -12.03125 C 0.6875 -13.65625 0.882812 -15.332031 1.28125 -17.0625 C 1.6875 -18.800781 2.300781 -20.378906 3.125 -21.796875 C 3.945312 -23.222656 5 -24.382812 6.28125 -25.28125 C 7.570312 -26.1875 9.109375 -26.640625 10.890625 -26.640625 C 12.609375 -26.640625 14.070312 -26.171875 15.28125 -25.234375 C 16.488281 -24.304688 17.457031 -23.144531 18.1875 -21.75 C 18.925781 -20.363281 19.445312 -18.84375 19.75 -17.1875 C 20.0625 -15.53125 20.171875 -13.96875 20.078125 -12.5 C 19.984375 -10.875 19.726562 -9.234375 19.3125 -7.578125 C 18.90625 -5.921875 18.300781 -4.4375 17.5 -3.125 C 16.707031 -1.8125 15.695312 -0.742188 14.46875 0.078125 C 13.25 0.910156 11.796875 1.328125 10.109375 1.328125 Z M 10.5625 -19.4375 C 10.101562 -19.4375 9.695312 -19.191406 9.34375 -18.703125 C 9 -18.210938 8.707031 -17.613281 8.46875 -16.90625 C 8.238281 -16.195312 8.0625 -15.453125 7.9375 -14.671875 C 7.820312 -13.890625 7.765625 -13.210938 7.765625 -12.640625 C 7.765625 -11.898438 7.832031 -11.097656 7.96875 -10.234375 C 8.101562 -9.378906 8.289062 -8.59375 8.53125 -7.875 C 8.78125 -7.15625 9.082031 -6.554688 9.4375 -6.078125 C 9.789062 -5.609375 10.195312 -5.375 10.65625 -5.375 C 11.144531 -5.375 11.566406 -5.601562 11.921875 -6.0625 C 12.273438 -6.519531 12.554688 -7.101562 12.765625 -7.8125 C 12.984375 -8.519531 13.140625 -9.289062 13.234375 -10.125 C 13.328125 -10.96875 13.375 -11.757812 13.375 -12.5 C 13.375 -13.164062 13.3125 -13.90625 13.1875 -14.71875 C 13.0625 -15.53125 12.882812 -16.289062 12.65625 -17 C 12.425781 -17.707031 12.132812 -18.289062 11.78125 -18.75 C 11.425781 -19.207031 11.019531 -19.4375 10.5625 -19.4375 Z M 10.5625 -19.4375 "/></g></g></g><g clip-path="url(#feb1085ccf)"><g fill="#8e85e6" fill-opacity="1"><g transform="translate(219.245364, 38.428919)"><g><path d="M 9.96875 -27.84375 C 9.96875 -26.1875 9.898438 -24.523438 9.765625 -22.859375 C 9.628906 -21.191406 9.5625 -19.515625 9.5625 -17.828125 C 9.5625 -15.648438 9.628906 -13.472656 9.765625 -11.296875 C 9.898438 -9.128906 9.96875 -6.941406 9.96875 -4.734375 C 9.96875 -4.179688 9.9375 -3.5625 9.875 -2.875 C 9.8125 -2.1875 9.664062 -1.550781 9.4375 -0.96875 C 9.207031 -0.382812 8.863281 0.101562 8.40625 0.5 C 7.945312 0.90625 7.332031 1.109375 6.5625 1.109375 C 5.832031 1.109375 5.195312 0.742188 4.65625 0.015625 C 4.125 -0.703125 3.679688 -1.617188 3.328125 -2.734375 C 2.972656 -3.847656 2.679688 -5.09375 2.453125 -6.46875 C 2.222656 -7.851562 2.054688 -9.195312 1.953125 -10.5 C 1.847656 -11.800781 1.769531 -12.992188 1.71875 -14.078125 C 1.675781 -15.171875 1.65625 -15.976562 1.65625 -16.5 C 1.65625 -17.070312 1.675781 -17.910156 1.71875 -19.015625 C 1.769531 -20.117188 1.867188 -21.3125 2.015625 -22.59375 C 2.171875 -23.882812 2.378906 -25.195312 2.640625 -26.53125 C 2.898438 -27.863281 3.242188 -29.070312 3.671875 -30.15625 C 4.097656 -31.25 4.609375 -32.140625 5.203125 -32.828125 C 5.804688 -33.515625 6.519531 -33.859375 7.34375 -33.859375 C 8.019531 -33.859375 8.535156 -33.632812 8.890625 -33.1875 C 9.242188 -32.75 9.492188 -32.210938 9.640625 -31.578125 C 9.796875 -30.953125 9.890625 -30.296875 9.921875 -29.609375 C 9.953125 -28.921875 9.96875 -28.332031 9.96875 -27.84375 Z M 9.96875 -27.84375 "/></g></g></g></g></svg>